<?xml version="1.0" encoding="UTF-8" standalone="no"?>
<!DOCTYPE svg PUBLIC "-//W3C//DTD SVG 1.1//EN" "http://www.w3.org/Graphics/SVG/1.1/DTD/svg11.dtd">
<svg xmlns="http://www.w3.org/2000/svg" version="1.1" viewBox="0.00 0.00 1058.00 583.00">
<g stroke-width="2.00" fill="none" stroke-linecap="butt">
<path stroke="#e5562b" stroke-opacity="0.996" vector-effect="non-scaling-stroke" d="
  M 215.82 326.85
  Q 219.91 322.51 223.58 318.09
  Q 226.72 314.33 227.07 311.03"
/>
<path stroke="#e5562b" stroke-opacity="0.996" vector-effect="non-scaling-stroke" d="
  M 208.14 374.05
  Q 202.03 370.34 201.21 364.74
  Q 200.56 360.33 199.67 357.80"
/>
<path stroke="#949494" vector-effect="non-scaling-stroke" d="
  M 865.77 197.70
  Q 863.29 201.39 864.63 205.14
  Q 865.91 208.70 869.41 209.81
  Q 873.25 211.03 877.17 208.23"
/>
<path stroke="#949494" vector-effect="non-scaling-stroke" d="
  M 869.65 199.79
  L 868.50 202.41
  Q 868.28 202.89 868.48 203.37
  C 869.61 206.25 872.15 207.23 874.45 204.68"
/>
<path stroke="#949494" vector-effect="non-scaling-stroke" d="
  M 885.34 207.27
  A 7.85 7.83 24.4 0 0 888.60 215.91
  A 7.84 7.83 17.6 0 0 900.73 209.63"
/>
<path stroke="#949494" vector-effect="non-scaling-stroke" d="
  M 896.17 209.12
  Q 895.35 212.95 891.50 211.81
  C 889.39 211.18 890.03 209.20 890.07 207.55"
/>
<path stroke="#949494" vector-effect="non-scaling-stroke" d="
  M 910.10 209.82
  A 7.96 7.53 -15.2 0 0 906.91 220.34
  A 7.96 7.54 -14.8 0 0 915.73 223.69
  A 7.95 7.52 -14.8 0 0 921.56 217.77
  A 8.02 7.59 -15.6 0 0 920.81 212.68"
/>
<path stroke="#949494" vector-effect="non-scaling-stroke" d="
  M 941.6092 221.1717
  A 7.92 7.57 -11.2 0 0 932.3696 215.2842
  A 7.92 7.57 -11.2 0 0 926.0708 224.2483
  A 7.92 7.57 -11.2 0 0 935.3104 230.1358
  A 7.92 7.57 -11.2 0 0 941.6092 221.1717"
/>
<path stroke="#949494" vector-effect="non-scaling-stroke" d="
  M 952.97 222.62
  A 7.89 7.64 -3.7 0 0 947.48 227.13
  A 7.89 7.64 -3.6 0 0 949.79 235.99
  A 7.88 7.63 -3.9 0 0 961.86 233.29
  A 7.89 7.63 -3.1 0 0 961.82 226.66"
/>
<path stroke="#949494" vector-effect="non-scaling-stroke" d="
  M 983.6864 235.7658
  A 7.98 7.42 -10.5 0 0 974.4878 229.9242
  A 7.98 7.42 -10.5 0 0 967.9936 238.6742
  A 7.98 7.42 -10.5 0 0 977.1922 244.5158
  A 7.98 7.42 -10.5 0 0 983.6864 235.7658"
/>
<path stroke="#949494" vector-effect="non-scaling-stroke" d="
  M 914.6123 219.3813
  A 3.23 3.01 75.8 0 0 916.7380 215.5116
  A 3.23 3.01 75.8 0 0 913.0277 213.1187
  A 3.23 3.01 75.8 0 0 910.9020 216.9884
  A 3.23 3.01 75.8 0 0 914.6123 219.3813"
/>
<path stroke="#949494" vector-effect="non-scaling-stroke" d="
  M 937.1735 222.8778
  A 3.31 2.93 3.6 0 0 934.0540 219.7458
  A 3.31 2.93 3.6 0 0 930.5665 222.4622
  A 3.31 2.93 3.6 0 0 933.6860 225.5942
  A 3.31 2.93 3.6 0 0 937.1735 222.8778"
/>
<path stroke="#949494" vector-effect="non-scaling-stroke" d="
  M 957.57 231.28
  L 957.35 228.25
  A 1.23 1.23 0.0 0 0 956.04 227.11
  L 954.31 227.24
  A 2.96 2.56 -4.1 0 0 951.54 230.00
  L 951.57 230.38
  A 2.96 2.56 -4.1 0 0 954.71 232.72
  L 956.43 232.60
  A 1.23 1.23 0.0 0 0 957.57 231.28"
/>
<path stroke="#949494" vector-effect="non-scaling-stroke" d="
  M 976.6320 240.2583
  A 3.28 3.05 78.0 0 0 978.9334 236.4159
  A 3.28 3.05 78.0 0 0 975.2680 233.8417
  A 3.28 3.05 78.0 0 0 972.9666 237.6841
  A 3.28 3.05 78.0 0 0 976.6320 240.2583"
/>
<path stroke="#b85c5b" stroke-opacity="0.996" vector-effect="non-scaling-stroke" d="
  M 802.60 534.84
  Q 797.82 533.02 799.09 531.54"
/>
<path stroke="#b85c5b" stroke-opacity="0.996" vector-effect="non-scaling-stroke" d="
  M 788.06 501.22
  Q 784.38 500.13 784.96 496.85"
/>
<path stroke="#7f2827" vector-effect="non-scaling-stroke" d="
  M 85.83 522.59
  Q 86.39 524.01 86.94 525.39
  Q 87.69 527.30 88.36 525.36
  C 91.43 516.57 96.37 509.59 101.11 501.80
  Q 105.68 494.27 103.20 487.30
  C 99.82 477.79 89.30 473.77 80.48 477.93
  C 72.98 481.47 69.08 490.46 72.50 498.29
  Q 74.36 502.52 76.94 506.16
  Q 82.40 513.83 85.83 522.59"
/>
<path stroke="#7f2827" vector-effect="non-scaling-stroke" d="
  M 93.64 492.07
  A 5.96 5.96 0.0 0 0 87.68 486.11
  A 5.96 5.96 0.0 0 0 81.72 492.07
  A 5.96 5.96 0.0 0 0 87.68 498.03
  A 5.96 5.96 0.0 0 0 93.64 492.07"
/>
<path stroke="#ba3c6a" vector-effect="non-scaling-stroke" d="
  M 796.32 502.28
  Q 795.79 505.08 800.48 508.33"
/>
<path stroke="#ba3c6a" vector-effect="non-scaling-stroke" d="
  M 806.30 521.85
  Q 809.49 523.89 811.79 527.35"
/>
<path stroke="#a781ae" vector-effect="non-scaling-stroke" d="
  M 809.5626 508.0261
  A 1.41 1.09 37.9 0 0 809.1196 506.2999
  A 1.41 1.09 37.9 0 0 807.3374 506.2939
  A 1.41 1.09 37.9 0 0 807.7804 508.0201
  A 1.41 1.09 37.9 0 0 809.5626 508.0261"
/>
</g>
<path fill="#292929" d="
  M 442.59 147.13
  Q 441.01 148.57 440.11 150.14
  C 437.11 155.41 434.59 160.92 434.64 167.14
  C 434.68 171.98 434.58 177.06 436.71 181.44
  Q 438.65 185.44 441.38 189.65
  A 0.65 0.64 71.5 0 1 440.89 190.64
  Q 434.02 191.15 427.58 190.53
  A 1.27 1.27 0.0 0 1 426.59 188.66
  Q 429.36 183.65 431.33 179.08
  Q 434.53 171.72 427.57 169.82
  Q 424.25 168.91 415.70 170.38
  C 414.41 170.60 413.53 171.36 412.25 171.64
  Q 406.34 172.89 401.09 173.43
  C 396.95 173.85 392.87 175.17 388.74 175.24
  Q 377.27 175.44 365.50 175.35
  Q 360.38 175.32 355.79 174.38
  C 351.00 173.40 346.38 173.84 341.60 172.63
  C 327.67 169.11 315.65 162.92 302.55 156.62
  Q 296.94 153.91 286.28 150.96
  Q 281.64 149.67 276.55 149.21
  Q 271.42 148.74 266.08 148.02
  Q 258.18 146.94 251.08 148.98
  C 248.87 149.62 246.83 149.27 244.52 150.17
  Q 240.14 151.87 236.77 153.55
  C 225.96 158.95 219.97 166.92 214.90 177.42
  Q 213.03 181.28 208.47 181.10
  Q 201.34 180.81 195.21 180.75
  Q 191.69 180.71 188.34 181.89
  C 184.37 183.28 183.22 186.32 183.15 190.34
  Q 183.11 193.04 183.17 195.51
  Q 183.78 220.51 183.68 245.48
  Q 183.66 248.47 183.29 252.49
  Q 183.07 254.85 180.71 254.85
  L 62.58 254.68
  A 1.59 1.56 74.4 0 1 61.23 253.90
  Q 60.73 253.04 60.72 251.93
  Q 60.69 219.19 60.82 192.76
  C 60.84 188.71 62.49 184.76 62.61 180.80
  C 62.71 177.30 62.38 173.90 63.46 170.46
  Q 64.49 167.16 64.39 163.44
  C 64.30 160.12 65.81 157.34 66.15 153.93
  Q 66.38 151.62 67.03 149.34
  Q 68.23 145.10 69.02 140.87
  Q 69.78 136.82 71.33 132.73
  Q 73.97 125.78 76.49 118.68
  C 78.01 114.39 80.18 109.74 82.82 106.06
  C 88.37 98.35 92.69 91.94 100.50 85.46
  Q 115.39 73.12 134.14 67.15
  Q 139.82 65.35 145.98 64.70
  C 154.32 63.82 163.03 62.36 171.21 63.86
  Q 175.04 64.57 178.40 64.74
  C 181.66 64.90 185.05 64.75 188.11 65.71
  Q 191.27 66.70 194.55 66.82
  C 197.72 66.94 200.35 68.45 203.45 68.52
  Q 205.12 68.56 206.82 69.08
  Q 219.88 72.99 233.24 76.42
  Q 236.55 77.26 239.58 78.39
  C 242.50 79.48 245.35 80.32 248.26 81.59
  Q 274.50 93.10 300.03 104.07
  Q 305.45 106.40 315.21 108.91
  Q 319.60 110.05 323.19 110.06
  Q 327.22 110.08 331.23 110.18
  C 338.19 110.35 345.47 109.42 352.37 107.31
  Q 357.21 105.82 362.28 104.69
  Q 364.01 104.30 365.57 103.62
  C 367.11 102.94 368.91 102.95 370.54 102.40
  Q 398.37 93.10 430.32 82.88
  Q 434.84 81.43 440.07 80.16
  Q 444.50 79.08 449.54 78.74
  Q 462.76 77.84 469.19 78.69
  C 486.71 81.02 505.75 89.00 514.83 104.88
  C 517.20 109.03 517.96 117.34 513.26 120.34
  Q 507.11 124.27 501.65 125.05
  Q 498.74 125.47 496.09 126.02
  Q 493.27 126.61 490.28 126.98
  Q 485.99 127.52 481.56 129.20
  Q 474.49 131.86 466.82 135.49
  Q 454.01 141.55 447.19 152.41
  C 439.91 164.03 443.78 177.56 454.78 185.09
  Q 457.81 187.16 460.52 189.23
  Q 462.22 190.53 460.09 190.74
  C 456.96 191.06 450.03 191.81 447.85 188.92
  Q 445.26 185.48 442.93 181.76
  C 438.93 175.40 437.98 167.90 438.61 160.53
  C 438.98 156.11 441.77 152.18 442.94 147.88
  Q 443.03 147.54 442.90 147.20
  A 0.20 0.19 57.0 0 0 442.59 147.13
  Z
  M 132.87 74.60
  Q 123.75 77.38 117.02 80.78
  A 5.02 5.00 84.8 0 0 114.45 83.87
  L 114.35 84.22
  Q 113.71 86.44 115.95 85.85
  C 121.33 84.42 126.64 81.12 131.61 79.75
  Q 134.49 78.95 137.53 78.06
  Q 139.72 77.41 141.94 77.13
  Q 144.00 76.87 146.20 76.16
  Q 149.42 75.13 152.65 75.04
  C 158.37 74.88 164.13 73.14 169.78 74.65
  C 173.42 75.61 177.23 75.68 180.89 76.65
  Q 184.97 77.74 189.81 76.91
  Q 190.37 76.81 190.30 76.25
  L 190.09 74.55
  Q 190.00 73.81 189.27 73.67
  Q 187.08 73.24 184.87 72.56
  Q 182.76 71.91 180.58 71.74
  Q 174.83 71.27 169.21 70.37
  C 165.91 69.85 162.58 69.95 159.24 69.94
  Q 156.13 69.94 152.79 70.58
  Q 148.48 71.41 143.90 72.04
  Q 139.14 72.69 132.87 74.60
  Z
  M 235.63 85.48
  Q 238.24 86.32 241.07 87.32
  Q 243.88 88.30 246.50 89.42
  Q 277.47 102.64 309.04 115.99
  Q 311.09 116.86 313.01 117.06
  Q 315.44 117.31 317.81 118.23
  C 320.11 119.13 322.73 119.32 325.20 118.74
  A 0.89 0.89 0.0 0 0 325.52 117.15
  Q 325.20 116.91 324.80 116.76
  Q 309.38 110.92 294.40 105.12
  C 286.34 101.99 278.83 98.44 271.17 94.98
  Q 263.22 91.38 254.33 88.50
  Q 240.54 84.03 227.13 79.57
  C 224.90 78.84 222.50 78.30 220.12 78.79
  Q 216.79 79.49 220.04 80.52
  Q 227.74 82.94 235.63 85.48
  Z
  M 497.45 95.34
  Q 501.60 96.78 509.09 101.66
  Q 510.35 102.48 510.90 101.05
  A 1.11 1.10 38.7 0 0 510.78 100.01
  C 507.37 95.03 499.86 91.60 494.46 89.50
  C 487.56 86.81 480.17 86.83 472.61 87.01
  Q 470.52 87.06 468.98 87.96
  A 0.53 0.53 0.0 0 0 469.11 88.93
  C 473.07 90.01 477.16 90.82 481.23 91.10
  Q 483.87 91.28 486.68 92.03
  Q 491.98 93.46 497.45 95.34
  Z
  M 375.77 119.72
  C 374.17 120.23 372.87 119.79 371.21 120.56
  Q 368.58 121.77 365.67 121.95
  Q 364.30 122.04 363.06 122.59
  C 361.09 123.47 359.24 123.07 357.16 123.60
  C 355.14 124.11 353.58 125.00 351.42 125.16
  Q 337.99 126.11 324.73 124.90
  C 322.00 124.65 319.49 123.68 316.77 123.29
  Q 313.98 122.89 311.18 122.02
  Q 302.69 119.41 294.14 116.92
  Q 293.34 116.69 292.60 117.09
  L 292.36 117.22
  A 0.36 0.36 0.0 0 0 292.37 117.86
  Q 301.42 122.39 309.05 124.80
  Q 314.40 126.50 320.89 127.91
  Q 326.51 129.13 332.04 129.17
  Q 340.03 129.23 347.79 129.06
  C 352.10 128.97 355.91 127.57 360.18 127.30
  C 362.37 127.16 363.98 125.91 366.31 125.77
  Q 367.96 125.67 370.26 124.93
  Q 372.53 124.20 374.82 123.64
  Q 389.94 119.94 405.96 112.89
  Q 408.05 111.96 409.61 110.57
  Q 410.16 110.09 409.43 110.04
  Q 405.88 109.82 402.04 111.21
  C 397.56 112.85 393.13 114.59 388.55 115.89
  Q 382.23 117.69 375.77 119.72
  Z"
/>
<rect fill="#292929" x="-2.12" y="-1.80" transform="translate(263.07,160.40) rotate(44.9)" width="4.24" height="3.60" rx="1.19"/>
<path fill="#292929" d="
  M 920.50 199.32
  Q 926.10 201.28 931.16 202.79
  Q 932.61 203.23 934.25 203.24
  Q 934.95 203.24 935.24 202.61
  Q 935.77 201.44 936.47 200.34
  C 937.87 198.17 935.60 196.91 934.12 195.90
  Q 933.59 195.54 933.56 194.91
  C 933.10 184.36 944.28 186.87 948.97 191.10
  C 951.90 193.75 949.73 197.88 947.77 200.38
  A 1.60 1.59 23.9 0 1 946.23 200.97
  L 943.31 200.45
  Q 942.78 200.36 942.42 200.75
  Q 940.98 202.33 940.26 204.26
  A 1.60 1.60 0.0 0 0 941.30 206.34
  Q 946.35 207.86 951.28 209.59
  Q 955.66 211.12 957.17 206.94
  Q 958.41 203.50 955.13 202.72
  Q 954.56 202.58 954.45 202.02
  C 953.43 196.94 956.03 193.34 961.34 194.01
  Q 964.79 194.44 968.29 196.39
  C 973.10 199.07 970.98 204.75 967.60 207.25
  A 0.95 0.94 42.7 0 1 966.55 207.29
  Q 965.09 206.41 963.46 206.48
  Q 963.04 206.49 962.82 206.85
  Q 961.40 209.13 960.97 211.46
  A 1.33 1.33 0.0 0 0 961.80 212.95
  Q 967.05 214.97 972.13 216.62
  Q 973.75 217.15 975.56 216.97
  A 1.02 1.01 12.2 0 0 976.34 216.47
  L 978.11 213.45
  A 1.35 1.34 24.2 0 0 977.36 211.49
  Q 974.42 210.55 974.64 207.50
  C 975.33 197.64 988.68 201.27 991.20 207.24
  C 991.91 208.93 990.68 211.54 989.91 213.06
  C 988.76 215.34 986.29 214.78 984.24 214.71
  Q 983.73 214.69 983.35 215.04
  C 981.83 216.45 980.56 219.09 982.69 220.70
  C 989.67 226.00 996.13 229.51 998.38 238.61
  C 1000.77 248.25 998.93 263.17 988.53 267.72
  C 982.28 270.46 977.11 270.96 970.90 268.79
  Q 967.21 267.49 963.80 266.23
  C 958.59 264.31 955.65 260.48 952.68 256.00
  C 950.35 252.49 946.52 250.17 942.48 251.37
  Q 920.84 257.81 900.93 263.81
  Q 898.07 264.68 895.01 265.34
  C 886.90 267.09 877.30 268.72 872.72 259.86
  C 870.02 254.63 868.13 248.47 862.45 245.65
  Q 858.22 243.54 852.25 242.47
  C 848.63 241.83 846.85 239.08 846.08 235.65
  Q 845.33 232.34 844.24 229.02
  C 843.69 227.36 843.69 225.03 843.16 223.02
  Q 842.39 220.07 842.25 217.85
  C 841.98 213.60 840.75 210.18 840.30 206.24
  Q 839.56 199.73 843.34 193.73
  C 847.34 187.38 852.72 180.02 861.34 181.51
  Q 865.99 182.32 869.96 183.99
  A 2.53 2.53 0.0 0 0 873.29 182.59
  L 874.35 179.91
  A 1.99 1.98 22.4 0 0 873.27 177.35
  Q 872.21 176.91 871.20 176.31
  C 869.52 175.31 870.22 173.93 870.56 172.52
  Q 871.67 167.93 876.36 166.87
  A 1.77 1.74 -38.5 0 1 877.51 166.99
  Q 880.47 168.36 883.33 168.88
  C 884.81 169.15 886.64 170.37 886.79 172.02
  Q 887.07 175.10 886.44 177.74
  C 885.31 182.47 880.37 178.80 878.82 182.07
  Q 878.12 183.56 878.31 185.19
  Q 878.38 185.82 878.96 186.08
  Q 885.37 188.99 892.18 190.46
  A 0.93 0.92 -69.7 0 0 893.19 189.99
  L 895.34 185.90
  A 1.28 1.28 0.0 0 0 894.66 184.11
  Q 890.99 182.72 892.10 178.60
  C 894.56 169.45 909.59 175.39 908.68 181.37
  Q 907.68 187.88 902.18 187.35
  C 899.12 187.05 897.49 191.63 900.31 192.86
  Q 905.37 195.08 913.52 197.15
  Q 914.25 197.34 914.57 196.65
  L 916.16 193.11
  Q 916.72 191.87 915.62 191.05
  Q 914.70 190.37 913.84 189.62
  C 911.52 187.58 914.11 183.64 915.67 181.90
  Q 917.12 180.28 919.34 180.64
  C 923.49 181.30 931.04 183.50 929.87 188.82
  Q 929.32 191.29 927.98 193.66
  Q 927.67 194.21 927.04 194.21
  L 922.59 194.26
  Q 921.95 194.26 921.54 194.76
  Q 920.22 196.34 919.93 198.36
  Q 919.83 199.08 920.50 199.32
  Z
  M 876.9938 179.0593
  A 4.65 3.72 108.9 0 0 882.0194 175.8650
  A 4.65 3.72 108.9 0 0 880.0062 170.2607
  A 4.65 3.72 108.9 0 0 874.9806 173.4550
  A 4.65 3.72 108.9 0 0 876.9938 179.0593
  Z
  M 897.5186 185.6517
  A 4.83 3.69 120.5 0 0 903.1494 183.3628
  A 4.83 3.69 120.5 0 0 902.4214 177.3283
  A 4.83 3.69 120.5 0 0 896.7906 179.6172
  A 4.83 3.69 120.5 0 0 897.5186 185.6517
  Z
  M 920.1640 192.8998
  A 4.59 3.69 104.2 0 0 924.8673 189.3552
  A 4.59 3.69 104.2 0 0 922.4160 184.0002
  A 4.59 3.69 104.2 0 0 917.7127 187.5448
  A 4.59 3.69 104.2 0 0 920.1640 192.8998
  Z
  M 939.4936 199.1092
  A 4.66 3.64 118.4 0 0 944.9119 196.7413
  A 4.66 3.64 118.4 0 0 943.9264 190.9108
  A 4.66 3.64 118.4 0 0 938.5081 193.2787
  A 4.66 3.64 118.4 0 0 939.4936 199.1092
  Z
  M 865.77 197.70
  Q 863.29 201.39 864.63 205.14
  Q 865.91 208.70 869.41 209.81
  Q 873.25 211.03 877.17 208.23
  Q 880.06 206.12 880.25 202.88
  C 880.57 197.66 874.91 195.05 870.51 195.26
  Q 867.95 195.37 865.77 197.70
  Z
  M 960.2593 205.3939
  A 4.40 3.69 116.9 0 0 965.5407 203.1395
  A 4.40 3.69 116.9 0 0 964.2407 197.5461
  A 4.40 3.69 116.9 0 0 958.9593 199.8005
  A 4.40 3.69 116.9 0 0 960.2593 205.3939
  Z
  M 885.34 207.27
  A 7.85 7.83 24.4 0 0 888.60 215.91
  A 7.84 7.83 17.6 0 0 900.73 209.63
  A 7.84 7.83 -88.5 0 0 893.03 201.52
  A 7.84 7.83 -81.7 0 0 885.34 207.27
  Z
  M 979.9340 212.8974
  A 4.77 3.71 125.0 0 0 985.7091 211.1180
  A 4.77 3.71 125.0 0 0 985.4060 205.0826
  A 4.77 3.71 125.0 0 0 979.6309 206.8620
  A 4.77 3.71 125.0 0 0 979.9340 212.8974
  Z
  M 910.10 209.82
  A 7.96 7.53 -15.2 0 0 906.91 220.34
  A 7.96 7.54 -14.8 0 0 915.73 223.69
  A 7.95 7.52 -14.8 0 0 921.56 217.77
  A 8.02 7.59 -15.6 0 0 920.81 212.68
  A 8.02 7.54 -13.4 0 0 916.93 209.38
  A 7.97 7.54 -15.0 0 0 910.10 209.82
  Z
  M 941.6092 221.1717
  A 7.92 7.57 -11.2 0 0 932.3696 215.2842
  A 7.92 7.57 -11.2 0 0 926.0708 224.2483
  A 7.92 7.57 -11.2 0 0 935.3104 230.1358
  A 7.92 7.57 -11.2 0 0 941.6092 221.1717
  Z
  M 952.97 222.62
  A 7.89 7.64 -3.7 0 0 947.48 227.13
  A 7.89 7.64 -3.6 0 0 949.79 235.99
  A 7.88 7.63 -3.9 0 0 961.86 233.29
  A 7.89 7.63 -3.1 0 0 961.82 226.66
  A 7.88 7.62 -4.0 0 0 952.97 222.62
  Z
  M 983.6864 235.7658
  A 7.98 7.42 -10.5 0 0 974.4878 229.9242
  A 7.98 7.42 -10.5 0 0 967.9936 238.6742
  A 7.98 7.42 -10.5 0 0 977.1922 244.5158
  A 7.98 7.42 -10.5 0 0 983.6864 235.7658
  Z"
/>
<rect fill="#171914" x="-1.46" y="-1.52" transform="translate(314.31,175.41) rotate(3.6)" width="2.92" height="3.04" rx="0.63"/>
<rect fill="#292929" x="-1.73" y="-2.11" transform="translate(228.25,176.43) rotate(-1.7)" width="3.46" height="4.22" rx="1.35"/>
<ellipse fill="#292929" cx="0.00" cy="0.00" transform="translate(266.73,181.25) rotate(49.0)" rx="2.14" ry="2.01"/>
<rect fill="#292929" x="-1.90" y="-1.57" transform="translate(420.91,182.16) rotate(5.3)" width="3.80" height="3.14" rx="0.91"/>
<rect fill="#292929" x="-1.61" y="-1.41" transform="translate(361.10,185.79) rotate(2.3)" width="3.22" height="2.82" rx="0.36"/>
<path fill="#292929" d="
  M 190.16 191.64
  Q 189.64 192.17 188.93 192.45
  A 0.68 0.68 0.0 0 1 188.00 191.88
  Q 187.73 188.87 188.92 186.55
  A 0.98 0.96 -77.2 0 1 189.72 186.03
  Q 199.95 185.51 216.83 185.85
  C 222.41 185.96 222.93 189.82 222.96 194.72
  Q 223.13 222.94 222.92 253.54
  Q 222.91 254.45 222.00 254.43
  L 219.75 254.38
  A 0.72 0.72 0.0 0 1 219.05 253.66
  Q 219.04 227.98 218.95 200.27
  C 218.93 195.54 217.92 190.97 212.01 190.81
  Q 202.04 190.54 191.78 190.91
  A 2.42 2.38 -68.8 0 0 190.16 191.64
  Z"
/>
<path fill="#171914" d="
  M 254.36 196.69
  C 254.44 194.97 256.16 191.10 257.73 190.04
  Q 262.09 187.09 267.14 189.36
  Q 267.70 189.61 267.75 190.22
  C 268.17 195.27 268.53 201.18 266.74 206.00
  Q 265.82 208.47 266.00 211.41
  C 266.15 213.96 264.82 215.55 264.45 217.88
  Q 262.36 231.08 260.36 243.76
  C 259.86 246.93 258.91 249.76 259.19 252.95
  A 1.42 1.42 0.0 0 1 257.99 254.48
  Q 251.84 255.40 246.50 254.47
  A 1.02 1.01 -3.3 0 1 245.71 253.77
  C 244.26 248.92 247.21 245.55 247.28 240.89
  C 247.32 237.75 248.24 234.91 248.73 231.84
  Q 250.47 220.80 252.22 209.54
  C 252.90 205.17 254.17 201.26 254.36 196.69
  Z
  M 258.0464 202.8747
  A 3.98 3.54 135.6 0 0 263.3668 202.6192
  A 3.98 3.54 135.6 0 0 263.7336 197.3053
  A 3.98 3.54 135.6 0 0 258.4132 197.5608
  A 3.98 3.54 135.6 0 0 258.0464 202.8747
  Z
  M 256.6135 212.6864
  A 4.05 3.50 132.7 0 0 261.9322 212.0836
  A 4.05 3.50 132.7 0 0 262.1065 206.7336
  A 4.05 3.50 132.7 0 0 256.7878 207.3364
  A 4.05 3.50 132.7 0 0 256.6135 212.6864
  Z
  M 255.3609 223.2485
  A 4.11 3.43 125.2 0 0 260.5328 221.8672
  A 4.11 3.43 125.2 0 0 260.0991 216.5315
  A 4.11 3.43 125.2 0 0 254.9272 217.9128
  A 4.11 3.43 125.2 0 0 255.3609 223.2485
  Z
  M 259.7252 227.5681
  A 3.94 3.48 -30.2 0 0 254.5695 226.5423
  A 3.94 3.48 -30.2 0 0 252.9148 231.5319
  A 3.94 3.48 -30.2 0 0 258.0705 232.5577
  A 3.94 3.48 -30.2 0 0 259.7252 227.5681
  Z
  M 257.9105 236.6869
  A 3.93 3.48 -40.9 0 0 252.6615 236.6296
  A 3.93 3.48 -40.9 0 0 251.9695 241.8331
  A 3.93 3.48 -40.9 0 0 257.2185 241.8904
  A 3.93 3.48 -40.9 0 0 257.9105 236.6869
  Z
  M 250.19 247.14
  L 250.19 251.34
  A 1.57 1.57 0.0 0 0 251.77 252.90
  L 252.95 252.90
  A 4.25 3.61 -0.1 0 0 257.19 249.28
  L 257.19 249.16
  A 4.25 3.61 -0.1 0 0 252.93 245.56
  L 251.75 245.56
  A 1.57 1.57 0.0 0 0 250.19 247.14
  Z"
/>
<path fill="#171914" d="
  M 307.72 191.03
  C 311.34 187.07 318.88 187.31 319.34 193.77
  Q 320.01 203.34 319.99 212.55
  Q 319.94 232.50 319.75 253.54
  A 1.13 1.12 -0.3 0 1 318.64 254.65
  L 307.92 254.78
  A 2.14 2.14 0.0 0 1 305.76 252.67
  Q 305.43 227.42 305.85 200.55
  C 305.89 197.54 305.58 193.36 307.72 191.03
  Z
  M 316.61 201.67
  A 2.53 2.53 0.0 0 0 316.51 198.47
  L 315.38 197.16
  A 2.53 2.53 0.0 0 0 311.57 197.14
  L 310.35 198.52
  A 2.53 2.53 0.0 0 0 310.50 202.02
  L 311.83 203.28
  A 2.53 2.53 0.0 0 0 315.58 203.00
  L 316.61 201.67
  Z
  M 317.24 209.90
  A 3.80 3.80 0.0 0 0 313.44 206.10
  A 3.80 3.80 0.0 0 0 309.64 209.90
  A 3.80 3.80 0.0 0 0 313.44 213.70
  A 3.80 3.80 0.0 0 0 317.24 209.90
  Z
  M 317.25 219.85
  A 3.72 3.72 0.0 0 0 313.53 216.13
  A 3.72 3.72 0.0 0 0 309.81 219.85
  A 3.72 3.72 0.0 0 0 313.53 223.57
  A 3.72 3.72 0.0 0 0 317.25 219.85
  Z
  M 316.6931 230.8611
  A 2.32 2.32 0.0 0 0 316.5557 227.5830
  L 315.0541 226.2021
  A 2.32 2.32 0.0 0 0 311.7760 226.3395
  L 310.2869 227.9589
  A 2.32 2.32 0.0 0 0 310.4243 231.2370
  L 311.9259 232.6179
  A 2.32 2.32 0.0 0 0 315.2040 232.4805
  L 316.6931 230.8611
  Z
  M 315.0519 242.7680
  A 3.84 3.70 66.0 0 0 316.8701 237.7551
  A 3.84 3.70 66.0 0 0 311.9281 235.7520
  A 3.84 3.70 66.0 0 0 310.1099 240.7649
  A 3.84 3.70 66.0 0 0 315.0519 242.7680
  Z
  M 317.19 249.25
  A 3.69 3.69 0.0 0 0 313.50 245.56
  A 3.69 3.69 0.0 0 0 309.81 249.25
  A 3.69 3.69 0.0 0 0 313.50 252.94
  A 3.69 3.69 0.0 0 0 317.19 249.25
  Z"
/>
<path fill="#292929" d="
  M 367.22 254.65
  A 1.99 1.99 0.0 0 1 365.23 252.66
  L 365.23 196.43
  A 8.02 6.66 -90.0 0 1 371.89 188.41
  L 373.65 188.41
  A 8.02 6.66 -90.0 0 1 380.31 196.43
  L 380.31 252.66
  A 1.99 1.99 0.0 0 1 378.32 254.65
  L 367.22 254.65
  Z
  M 371.7922 203.8023
  A 3.83 3.68 106.5 0 0 376.4085 201.1752
  A 3.83 3.68 106.5 0 0 373.9678 196.4577
  A 3.83 3.68 106.5 0 0 369.3515 199.0848
  A 3.83 3.68 106.5 0 0 371.7922 203.8023
  Z
  M 376.69 209.88
  A 3.75 3.75 0.0 0 0 372.94 206.13
  A 3.75 3.75 0.0 0 0 369.19 209.88
  A 3.75 3.75 0.0 0 0 372.94 213.63
  A 3.75 3.75 0.0 0 0 376.69 209.88
  Z
  M 369.38 218.93
  L 370.16 222.69
  A 1.73 1.73 0.0 0 0 372.21 224.03
  L 372.70 223.93
  A 5.13 3.54 -11.8 0 0 376.99 219.42
  L 376.95 219.20
  A 5.13 3.54 -11.8 0 0 371.20 216.78
  L 370.71 216.89
  A 1.73 1.73 0.0 0 0 369.38 218.93
  Z
  M 376.78 229.46
  A 3.80 3.80 0.0 0 0 372.98 225.66
  A 3.80 3.80 0.0 0 0 369.18 229.46
  A 3.80 3.80 0.0 0 0 372.98 233.26
  A 3.80 3.80 0.0 0 0 376.78 229.46
  Z
  M 370.7927 242.4828
  A 3.82 3.58 123.3 0 0 375.8822 241.2555
  A 3.82 3.58 123.3 0 0 374.9873 236.0972
  A 3.82 3.58 123.3 0 0 369.8978 237.3245
  A 3.82 3.58 123.3 0 0 370.7927 242.4828
  Z
  M 376.6459 249.9680
  A 3.83 3.71 10.5 0 0 373.5561 245.6221
  A 3.83 3.71 10.5 0 0 369.1141 248.5720
  A 3.83 3.71 10.5 0 0 372.2039 252.9179
  A 3.83 3.71 10.5 0 0 376.6459 249.9680
  Z"
/>
<rect fill="#292929" x="-4.07" y="-5.95" transform="translate(194.83,200.05) rotate(0.3)" width="8.14" height="11.90" rx="2.61"/>
<rect fill="#292929" x="-7.45" y="-5.97" transform="translate(208.59,200.16) rotate(0.2)" width="14.90" height="11.94" rx="2.72"/>
<path fill="#292929" d="
  M 469.53 196.68
  C 467.71 197.94 467.87 199.29 467.88 201.29
  Q 467.96 223.81 467.92 250.71
  Q 467.92 253.05 465.59 253.21
  Q 462.77 253.42 460.27 253.62
  Q 457.53 253.84 457.52 250.94
  Q 457.48 224.63 457.64 198.00
  Q 457.66 196.09 455.76 195.96
  Q 455.06 195.91 454.37 196.53
  A 1.50 1.48 68.9 0 0 453.88 197.66
  Q 454.36 223.83 453.95 252.48
  Q 453.93 253.97 452.46 254.19
  Q 448.99 254.70 445.73 254.29
  Q 444.24 254.11 444.18 252.61
  Q 443.87 245.62 444.05 239.32
  Q 444.54 221.86 444.41 205.92
  Q 444.38 201.54 443.51 197.12
  A 1.07 1.06 71.1 0 0 441.99 196.37
  Q 440.23 197.25 440.26 199.32
  Q 440.45 211.89 440.29 224.75
  A 0.43 0.43 0.0 0 1 439.60 225.09
  Q 437.58 223.54 435.83 222.68
  A 0.76 0.76 0.0 0 0 435.01 222.77
  L 432.68 224.69
  A 0.54 0.54 0.0 0 1 431.80 224.29
  Q 431.51 215.29 431.86 205.24
  Q 432.00 201.27 431.43 197.30
  A 1.36 1.35 79.8 0 0 429.81 196.17
  Q 427.91 196.57 427.95 198.51
  Q 428.32 220.05 428.24 241.84
  Q 428.21 248.01 427.91 253.52
  Q 427.86 254.41 426.97 254.42
  L 420.76 254.49
  A 0.97 0.97 0.0 0 1 419.78 253.54
  Q 419.17 225.19 419.75 198.00
  A 1.78 1.76 -60.5 0 0 419.49 197.04
  C 418.74 195.82 417.22 195.65 416.57 196.97
  Q 415.67 198.79 415.73 200.89
  Q 416.51 227.42 415.95 253.16
  Q 415.92 254.50 414.57 254.50
  L 411.07 254.51
  A 1.57 1.56 88.0 0 1 409.51 253.05
  C 408.34 234.75 409.21 216.34 409.35 198.17
  Q 409.37 196.32 407.57 195.93
  Q 407.26 195.86 407.02 196.05
  Q 405.42 197.33 405.47 199.61
  Q 406.03 226.39 405.91 247.34
  Q 405.89 250.56 405.45 253.88
  Q 405.38 254.38 404.89 254.50
  C 402.60 255.04 396.81 255.82 394.66 254.07
  Q 394.27 253.76 394.17 253.26
  Q 393.60 250.73 393.56 248.30
  Q 393.30 235.77 393.77 221.15
  Q 393.95 215.45 394.86 209.74
  Q 395.67 204.71 395.80 200.50
  Q 395.88 197.99 397.51 195.20
  Q 397.75 194.77 398.25 194.70
  Q 400.02 194.45 401.75 194.43
  Q 433.69 194.04 469.00 194.77
  Q 475.13 194.89 481.70 195.36
  A 1.95 1.94 2.5 0 1 483.50 197.32
  C 483.36 215.30 483.76 233.57 483.13 251.81
  A 0.94 0.93 -89.7 0 1 482.22 252.72
  L 472.70 252.96
  A 0.77 0.77 0.0 0 1 471.91 252.18
  Q 472.30 227.27 472.00 204.95
  Q 471.96 201.46 471.36 197.47
  A 1.18 1.17 -21.6 0 0 469.53 196.68
  Z"
/>
<path fill="#292929" d="
  M 486.22 198.00
  L 485.17 196.52
  Q 484.71 195.88 485.50 195.82
  Q 491.65 195.27 497.31 196.01
  A 1.38 1.38 0.0 0 1 498.51 197.33
  Q 499.40 221.94 498.68 247.47
  Q 498.62 249.48 498.44 251.63
  Q 498.34 252.73 497.24 252.83
  Q 492.74 253.23 488.30 252.85
  A 1.63 1.63 0.0 0 1 486.81 251.23
  L 486.71 199.50
  A 2.54 2.54 0.0 0 0 486.22 198.00
  Z
  M 496.16 225.38
  A 3.97 3.97 0.0 0 0 492.19 221.41
  A 3.97 3.97 0.0 0 0 488.22 225.38
  A 3.97 3.97 0.0 0 0 492.19 229.35
  A 3.97 3.97 0.0 0 0 496.16 225.38
  Z"
/>
<path fill="#292929" d="
  M 519.21 249.89
  L 519.22 198.48
  A 2.48 2.48 0.0 0 1 521.67 196.00
  L 530.78 195.90
  A 2.48 2.48 0.0 0 1 533.28 198.36
  L 533.57 249.15
  A 2.48 2.48 0.0 0 1 531.28 251.64
  L 521.88 252.36
  A 2.48 2.48 0.0 0 1 519.21 249.89
  Z"
/>
<rect fill="#292929" x="-6.28" y="-28.46" transform="translate(508.60,224.51) rotate(-0.1)" width="12.56" height="56.92" rx="1.81"/>
<path fill="#292929" d="
  M 550.6845 249.2779
  A 2.17 2.17 0.0 0 1 548.5183 251.4517
  L 538.9983 251.4683
  A 2.17 2.17 0.0 0 1 536.8245 249.3021
  L 536.7355 198.2821
  A 2.17 2.17 0.0 0 1 538.9017 196.1083
  L 548.4217 196.0917
  A 2.17 2.17 0.0 0 1 550.5955 198.2579
  L 550.6845 249.2779
  Z
  M 547.67 211.68
  A 3.93 3.93 0.0 0 0 543.74 207.75
  A 3.93 3.93 0.0 0 0 539.81 211.68
  A 3.93 3.93 0.0 0 0 543.74 215.61
  A 3.93 3.93 0.0 0 0 547.67 211.68
  Z
  M 544.5904 242.3067
  A 4.20 3.80 77.9 0 0 547.4256 237.4034
  A 4.20 3.80 77.9 0 0 542.8296 234.0933
  A 4.20 3.80 77.9 0 0 539.9944 238.9966
  A 4.20 3.80 77.9 0 0 544.5904 242.3067
  Z"
/>
<rect fill="#292929" x="-7.76" y="-27.52" transform="translate(561.90,223.71) rotate(0.1)" width="15.52" height="55.04" rx="1.87"/>
<rect fill="#292929" x="-8.96" y="-27.00" transform="translate(581.87,224.03) rotate(0.1)" width="17.92" height="54.00" rx="2.97"/>
<rect fill="#292929" x="-9.00" y="-26.10" transform="translate(603.78,223.69) rotate(-0.1)" width="18.00" height="52.20" rx="2.21"/>
<path fill="#292929" d="
  M 635.1768 247.2602
  A 2.37 2.37 0.0 0 1 632.7944 249.6178
  L 618.2346 249.5415
  A 2.37 2.37 0.0 0 1 615.8771 247.1592
  L 616.1232 200.1598
  A 2.37 2.37 0.0 0 1 618.5056 197.8022
  L 633.0654 197.8785
  A 2.37 2.37 0.0 0 1 635.4229 200.2608
  L 635.1768 247.2602
  Z
  M 629.7037 223.1989
  A 4.32 3.75 -8.4 0 0 624.8822 220.1202
  A 4.32 3.75 -8.4 0 0 621.1563 224.4611
  A 4.32 3.75 -8.4 0 0 625.9778 227.5398
  A 4.32 3.75 -8.4 0 0 629.7037 223.1989
  Z"
/>
<rect fill="#292929" x="-10.23" y="-25.62" transform="translate(648.96,223.55) rotate(-0.1)" width="20.46" height="51.24" rx="1.79"/>
<path fill="#ffffff" d="
  M 865.77 197.70
  Q 868.56 197.41 869.65 199.79
  L 868.50 202.41
  Q 868.28 202.89 868.48 203.37
  C 869.61 206.25 872.15 207.23 874.45 204.68
  Q 876.90 205.67 877.17 208.23
  Q 873.25 211.03 869.41 209.81
  Q 865.91 208.70 864.63 205.14
  Q 863.29 201.39 865.77 197.70
  Z"
/>
<rect fill="#292929" x="-11.43" y="-24.82" transform="translate(674.08,223.13) rotate(0.1)" width="22.86" height="49.64" rx="2.15"/>
<path fill="#292929" d="
  M 713.75 246.49
  L 715.27 246.56
  Q 715.93 246.60 716.03 245.94
  Q 716.25 244.49 716.27 243.00
  Q 716.56 218.18 716.01 203.26
  C 715.94 201.15 716.61 199.65 718.77 199.54
  Q 730.22 198.93 739.33 199.78
  A 0.68 0.67 -89.0 0 1 739.94 200.42
  Q 740.99 222.88 740.03 244.96
  A 1.08 1.07 88.5 0 1 739.06 245.99
  Q 733.54 246.52 727.36 246.63
  C 714.98 246.86 702.47 248.77 690.11 247.48
  Q 689.56 247.42 689.51 246.88
  Q 689.06 241.89 689.13 236.85
  Q 689.36 220.00 689.52 202.12
  Q 689.55 198.97 692.70 199.04
  L 710.27 199.42
  A 2.34 2.33 -2.7 0 1 712.53 201.47
  Q 713.02 205.48 712.93 209.04
  Q 712.62 221.80 712.24 235.59
  Q 712.10 240.66 712.92 245.75
  Q 713.04 246.45 713.75 246.49
  Z
  M 698.4385 227.0942
  A 3.80 3.64 120.2 0 0 703.4960 225.6410
  A 3.80 3.64 120.2 0 0 702.2615 220.5258
  A 3.80 3.64 120.2 0 0 697.2040 221.9790
  A 3.80 3.64 120.2 0 0 698.4385 227.0942
  Z"
/>
<path fill="#292929" d="
  M 874.45 204.68
  C 872.15 207.23 869.61 206.25 868.48 203.37
  Q 868.28 202.89 868.50 202.41
  L 869.65 199.79
  C 873.07 199.07 875.74 200.90 874.45 204.68
  Z"
/>
<path fill="#292929" d="
  M 771.27 243.84
  A 2.12 2.12 0.0 0 1 769.15 245.96
  L 745.85 245.96
  A 2.12 2.12 0.0 0 1 743.73 243.84
  L 743.73 201.88
  A 2.12 2.12 0.0 0 1 745.85 199.76
  L 769.15 199.76
  A 2.12 2.12 0.0 0 1 771.27 201.88
  L 771.27 243.84
  Z
  M 761.25 223.86
  A 3.74 3.74 0.0 0 0 757.51 220.12
  A 3.74 3.74 0.0 0 0 753.77 223.86
  A 3.74 3.74 0.0 0 0 757.51 227.60
  A 3.74 3.74 0.0 0 0 761.25 223.86
  Z"
/>
<path fill="#292929" d="
  M 774.72 244.14
  L 774.72 201.03
  A 1.08 1.08 0.0 0 1 775.85 199.95
  L 802.31 201.11
  A 1.08 1.08 0.0 0 1 803.35 202.19
  L 803.58 243.11
  A 1.08 1.08 0.0 0 1 802.55 244.20
  L 775.84 245.22
  A 1.08 1.08 0.0 0 1 774.72 244.14
  Z"
/>
<path fill="#292929" d="
  M 837.39 220.65
  C 838.55 223.63 838.26 226.30 838.97 229.27
  Q 840.73 236.53 843.26 241.74
  Q 843.59 242.43 842.83 242.44
  C 838.93 242.51 835.01 242.55 831.02 243.16
  Q 818.56 245.06 808.29 244.07
  A 0.72 0.71 -88.2 0 1 807.65 243.38
  Q 807.01 222.76 807.41 203.13
  A 1.61 1.61 0.0 0 1 808.87 201.56
  Q 821.44 200.46 834.46 201.47
  Q 835.87 201.58 835.95 202.99
  Q 836.35 210.29 836.91 218.41
  Q 837.00 219.63 837.39 220.65
  Z"
/>
<path fill="#292929" d="
  M 896.17 209.12
  Q 895.35 212.95 891.50 211.81
  C 889.39 211.18 890.03 209.20 890.07 207.55
  C 892.32 205.16 895.11 206.43 896.17 209.12
  Z"
/>
<path fill="#ffffff" d="
  M 890.07 207.55
  C 890.03 209.20 889.39 211.18 891.50 211.81
  Q 895.35 212.95 896.17 209.12
  Q 898.35 208.47 900.73 209.63
  A 7.84 7.83 17.6 0 1 888.60 215.91
  A 7.85 7.83 24.4 0 1 885.34 207.27
  Q 887.73 206.85 890.07 207.55
  Z"
/>
<rect fill="#292929" x="-4.06" y="-4.09" transform="translate(194.82,212.40) rotate(-0.4)" width="8.12" height="8.18" rx="3.19"/>
<rect fill="#292929" x="-7.18" y="-3.83" transform="translate(208.68,212.41) rotate(-0.3)" width="14.36" height="7.66" rx="1.26"/>
<path fill="#ffffff" d="
  M 910.10 209.82
  L 920.81 212.68
  A 8.02 7.59 -15.6 0 1 921.56 217.77
  A 7.95 7.52 -14.8 0 1 915.73 223.69
  A 7.96 7.54 -14.8 0 1 906.91 220.34
  A 7.96 7.53 -15.2 0 1 910.10 209.82
  Z
  M 914.6123 219.3813
  A 3.23 3.01 75.8 0 0 916.7380 215.5116
  A 3.23 3.01 75.8 0 0 913.0277 213.1187
  A 3.23 3.01 75.8 0 0 910.9020 216.9884
  A 3.23 3.01 75.8 0 0 914.6123 219.3813
  Z"
/>
<ellipse fill="#292929" cx="0.00" cy="0.00" transform="translate(913.82,216.25) rotate(75.8)" rx="3.23" ry="3.01"/>
<path fill="#ffffff" d="
  M 941.6092 221.1717
  A 7.92 7.57 -11.2 0 1 935.3104 230.1358
  A 7.92 7.57 -11.2 0 1 926.0708 224.2483
  A 7.92 7.57 -11.2 0 1 932.3696 215.2842
  A 7.92 7.57 -11.2 0 1 941.6092 221.1717
  Z
  M 937.1735 222.8778
  A 3.31 2.93 3.6 0 0 934.0540 219.7458
  A 3.31 2.93 3.6 0 0 930.5665 222.4622
  A 3.31 2.93 3.6 0 0 933.6860 225.5942
  A 3.31 2.93 3.6 0 0 937.1735 222.8778
  Z"
/>
<rect fill="#292929" x="-7.30" y="-3.86" transform="translate(208.70,222.68) rotate(0.3)" width="14.60" height="7.72" rx="1.95"/>
<rect fill="#292929" x="-3.94" y="-3.75" transform="translate(194.77,222.68) rotate(-0.7)" width="7.88" height="7.50" rx="2.12"/>
<ellipse fill="#292929" cx="0.00" cy="0.00" transform="translate(933.87,222.67) rotate(3.6)" rx="3.31" ry="2.93"/>
<path fill="#ffffff" d="
  M 952.97 222.62
  L 961.82 226.66
  A 7.89 7.63 -3.1 0 1 961.86 233.29
  A 7.88 7.63 -3.9 0 1 949.79 235.99
  A 7.89 7.64 -3.6 0 1 947.48 227.13
  A 7.89 7.64 -3.7 0 1 952.97 222.62
  Z
  M 957.57 231.28
  L 957.35 228.25
  A 1.23 1.23 0.0 0 0 956.04 227.11
  L 954.31 227.24
  A 2.96 2.56 -4.1 0 0 951.54 230.00
  L 951.57 230.38
  A 2.96 2.56 -4.1 0 0 954.71 232.72
  L 956.43 232.60
  A 1.23 1.23 0.0 0 0 957.57 231.28
  Z"
/>
<path fill="#292929" d="
  M 957.57 231.28
  A 1.23 1.23 0.0 0 1 956.43 232.60
  L 954.71 232.72
  A 2.96 2.56 -4.1 0 1 951.57 230.38
  L 951.54 230.00
  A 2.96 2.56 -4.1 0 1 954.31 227.24
  L 956.04 227.11
  A 1.23 1.23 0.0 0 1 957.35 228.25
  L 957.57 231.28
  Z"
/>
<rect fill="#292929" x="-4.05" y="-3.76" transform="translate(194.82,232.59) rotate(3.7)" width="8.10" height="7.52" rx="2.39"/>
<rect fill="#292929" x="-7.38" y="-3.68" transform="translate(208.65,232.54) rotate(-0.2)" width="14.76" height="7.36" rx="2.04"/>
<path fill="#292929" d="
  M 438.01 229.85
  Q 438.40 229.34 438.94 228.98
  A 0.78 0.78 0.0 0 1 440.16 229.56
  Q 441.17 241.58 440.15 253.30
  Q 440.06 254.40 438.96 254.57
  Q 436.22 255.00 434.10 254.85
  Q 431.50 254.68 431.58 252.08
  Q 431.77 245.21 431.56 237.44
  Q 431.44 233.18 431.94 229.43
  Q 432.12 228.04 433.01 229.12
  Q 434.58 231.04 437.20 230.38
  Q 437.70 230.26 438.01 229.85
  Z"
/>
<path fill="#ffffff" d="
  M 983.6864 235.7658
  A 7.98 7.42 -10.5 0 1 977.1922 244.5158
  A 7.98 7.42 -10.5 0 1 967.9936 238.6742
  A 7.98 7.42 -10.5 0 1 974.4878 229.9242
  A 7.98 7.42 -10.5 0 1 983.6864 235.7658
  Z
  M 976.6320 240.2583
  A 3.28 3.05 78.0 0 0 978.9334 236.4159
  A 3.28 3.05 78.0 0 0 975.2680 233.8417
  A 3.28 3.05 78.0 0 0 972.9666 237.6841
  A 3.28 3.05 78.0 0 0 976.6320 240.2583
  Z"
/>
<ellipse fill="#292929" cx="0.00" cy="0.00" transform="translate(975.95,237.05) rotate(78.0)" rx="3.28" ry="3.05"/>
<rect fill="#292929" x="-4.08" y="-3.80" transform="translate(194.80,242.94) rotate(0.7)" width="8.16" height="7.60" rx="2.44"/>
<rect fill="#292929" x="-7.37" y="-3.74" transform="translate(208.65,242.92) rotate(-0.6)" width="14.74" height="7.48" rx="2.06"/>
<ellipse fill="#292929" cx="0.00" cy="0.00" transform="translate(194.83,251.59) rotate(0.7)" rx="4.20" ry="2.29"/>
<rect fill="#292929" x="201.48" y="249.56" width="14.46" height="4.16" rx="1.69"/>
<path fill="#292929" d="
  M 461.42 257.46
  L 461.18 257.73
  Q 460.65 258.32 460.58 257.53
  Q 460.53 256.89 460.88 256.26
  Q 461.14 255.80 461.68 255.80
  Q 462.28 255.81 462.72 256.14
  Q 463.27 256.55 462.67 256.90
  Q 462.49 257.00 462.27 257.03
  Q 461.77 257.08 461.42 257.46
  Z"
/>
<path fill="#e6363a" d="
  M 437.80 304.13
  Q 438.30 301.84 436.81 303.65
  Q 428.40 313.86 420.63 321.42
  C 417.68 324.29 410.05 329.40 405.56 328.89
  C 396.96 327.91 398.52 317.14 399.78 311.59
  Q 400.19 309.81 398.79 310.99
  Q 397.58 312.01 396.37 312.55
  Q 393.25 313.93 390.13 315.38
  C 387.24 316.73 385.30 319.73 382.99 321.98
  Q 378.05 326.78 372.85 328.05
  Q 369.53 328.86 366.31 326.52
  C 363.41 324.40 362.82 319.88 362.73 316.41
  C 362.60 311.39 368.18 305.20 371.78 302.37
  C 374.15 300.50 375.03 297.69 377.54 296.03
  C 381.47 293.43 385.92 293.00 389.73 296.30
  C 392.90 299.04 393.07 303.63 392.71 307.43
  Q 392.43 310.40 394.42 308.19
  Q 396.91 305.43 400.24 304.12
  C 403.16 302.97 405.08 300.09 406.18 297.35
  Q 406.93 295.49 408.29 294.31
  C 412.15 290.97 416.42 287.40 421.83 289.67
  C 425.85 291.36 423.72 299.70 419.52 300.18
  Q 418.83 300.26 418.72 299.57
  L 418.44 297.94
  A 1.19 1.19 0.0 0 0 416.37 297.36
  Q 411.91 302.51 408.80 308.85
  C 407.09 312.34 406.78 316.29 406.25 320.04
  A 0.77 0.77 0.0 0 0 406.85 320.90
  Q 407.43 321.03 407.97 320.72
  Q 414.96 316.63 420.27 311.27
  C 423.47 308.05 426.87 304.92 429.72 301.40
  C 431.89 298.70 434.58 296.71 436.74 294.08
  C 439.83 290.31 443.66 287.24 445.77 282.88
  C 447.57 279.17 449.55 275.59 451.16 271.82
  Q 454.51 263.97 461.79 259.45
  Q 462.99 258.71 464.37 258.78
  A 1.53 1.53 0.0 0 1 465.75 260.78
  Q 462.96 269.47 457.73 277.07
  C 454.95 281.11 453.65 285.60 451.73 289.92
  Q 448.64 296.90 445.97 304.06
  C 445.71 304.75 444.72 306.27 444.66 306.65
  Q 444.28 309.02 445.91 307.26
  Q 448.35 304.60 450.96 301.98
  C 452.51 300.43 453.46 298.58 454.47 296.69
  A 1.73 1.72 -59.0 0 1 456.95 296.07
  Q 459.88 298.01 458.07 301.24
  Q 455.62 305.63 453.20 309.88
  C 451.45 312.96 448.85 315.19 446.19 317.42
  A 0.53 0.53 0.0 0 0 446.22 318.26
  Q 446.69 318.61 447.25 318.54
  Q 454.70 317.61 461.43 313.37
  C 464.76 311.28 468.40 309.45 471.34 306.74
  Q 476.21 302.25 481.26 297.91
  C 485.29 294.45 491.00 293.26 494.84 297.89
  C 497.97 301.65 494.82 306.77 492.72 310.01
  C 490.83 312.93 486.61 314.48 483.52 315.39
  Q 483.00 315.54 482.47 315.45
  L 479.41 314.88
  Q 477.83 314.59 477.18 316.06
  C 476.15 318.40 473.65 325.28 477.36 326.24
  Q 477.99 326.40 478.50 325.99
  C 481.08 323.93 484.08 323.67 486.76 321.84
  Q 488.75 320.49 491.01 319.65
  Q 492.74 319.01 493.41 320.74
  Q 493.83 321.82 493.07 322.69
  Q 490.61 325.47 487.77 327.17
  C 483.04 330.00 479.06 332.13 473.32 329.78
  C 468.61 327.85 468.12 322.72 469.11 318.36
  Q 469.78 315.41 467.59 317.50
  Q 457.86 326.81 444.18 326.12
  C 442.31 326.03 441.29 325.08 439.69 324.39
  A 0.91 0.91 0.0 0 0 438.45 325.02
  C 437.53 328.95 435.53 332.37 434.97 336.38
  C 434.37 340.69 432.40 344.58 431.75 348.95
  Q 431.30 352.06 429.59 355.01
  Q 429.34 355.44 428.84 355.49
  C 427.37 355.63 426.46 354.42 426.54 353.03
  C 426.70 350.27 426.56 347.68 427.12 344.91
  Q 428.40 338.55 430.26 332.83
  C 431.94 327.68 433.02 322.35 434.09 317.04
  C 434.98 312.59 436.80 308.61 437.80 304.13
  Z
  M 381.55 311.65
  C 383.49 309.27 385.25 306.14 385.02 303.01
  A 1.93 1.93 0.0 0 0 381.95 301.59
  Q 379.22 303.59 377.88 307.04
  C 377.09 309.06 378.61 311.21 380.45 311.94
  A 0.96 0.95 30.0 0 0 381.55 311.65
  Z
  M 486.8695 304.1415
  A 3.32 0.63 -40.1 0 0 483.9242 305.7981
  A 3.32 0.63 -40.1 0 0 481.7905 308.4185
  A 3.32 0.63 -40.1 0 0 484.7358 306.7619
  A 3.32 0.63 -40.1 0 0 486.8695 304.1415
  Z
  M 376.61 317.45
  A 1.02 1.02 0.0 0 0 376.68 315.80
  L 373.25 313.13
  A 1.02 1.02 0.0 0 0 371.62 313.76
  L 370.65 319.32
  A 1.02 1.02 0.0 0 0 372.21 320.34
  L 376.61 317.45
  Z"
/>
<path fill="#e6363a" d="
  M 215.82 326.85
  Q 219.91 322.51 223.58 318.09
  Q 226.72 314.33 227.07 311.03
  C 230.15 305.67 234.42 299.09 240.54 296.46
  Q 241.09 296.22 241.65 296.43
  C 242.74 296.82 244.17 298.10 243.40 299.40
  Q 238.28 308.04 235.50 315.39
  Q 234.80 317.23 234.43 319.26
  Q 234.16 320.75 235.44 319.95
  Q 237.89 318.43 240.24 315.91
  Q 243.70 312.21 247.18 308.58
  Q 250.39 305.25 252.82 301.55
  Q 256.50 295.97 261.22 290.77
  A 0.88 0.88 0.0 0 1 262.58 290.84
  L 265.26 294.46
  Q 265.56 294.86 265.60 295.35
  C 265.70 296.70 265.20 298.44 265.11 299.33
  Q 263.37 316.56 256.60 330.78
  C 250.31 344.01 242.42 356.82 232.71 366.91
  C 228.54 371.26 222.39 374.34 216.65 375.38
  Q 214.66 375.74 212.27 374.99
  Q 210.12 374.32 208.14 374.05
  Q 202.03 370.34 201.21 364.74
  Q 200.56 360.33 199.67 357.80
  Q 199.29 353.29 201.06 349.48
  Q 201.61 348.30 200.36 348.66
  C 194.53 350.34 192.06 343.78 192.26 339.40
  C 192.56 332.82 193.55 325.93 195.86 319.61
  Q 199.61 309.35 203.85 299.63
  C 206.19 294.26 209.27 289.60 211.59 284.35
  Q 212.94 281.30 215.10 278.68
  Q 220.01 272.71 225.82 267.87
  Q 227.84 266.18 230.41 265.78
  A 1.52 1.51 -75.9 0 1 231.85 268.19
  Q 210.96 295.90 200.83 330.28
  Q 199.55 334.62 199.77 340.32
  A 0.89 0.88 -16.4 0 0 201.10 341.04
  C 205.86 338.24 208.49 334.28 212.45 330.46
  Q 214.27 328.72 215.82 326.85
  Z
  M 206.02 347.68
  Q 204.96 352.95 204.57 358.82
  C 204.27 363.43 206.66 367.58 211.01 369.46
  C 216.34 371.76 223.95 365.98 227.75 361.93
  Q 230.98 358.50 232.84 355.71
  Q 239.67 345.53 245.66 334.92
  C 249.33 328.41 252.98 320.87 254.33 313.64
  Q 254.82 311.02 256.08 308.45
  Q 256.79 307.01 255.30 307.63
  Q 254.39 308.00 253.70 309.13
  Q 247.51 319.24 240.10 326.09
  Q 237.25 328.72 233.81 329.78
  C 229.93 330.96 226.78 327.41 225.96 323.94
  Q 225.48 321.88 224.46 323.73
  C 221.71 328.66 217.84 332.05 214.56 336.51
  Q 211.24 341.04 206.62 345.42
  Q 206.26 345.76 206.22 346.26
  Q 206.17 346.96 206.02 347.68
  Z"
/>
<path fill="#e6363a" d="
  M 328.91 325.35
  C 331.04 325.84 332.69 326.88 334.84 327.28
  Q 344.50 329.06 353.74 331.02
  C 356.91 331.69 360.00 331.13 363.20 331.49
  Q 363.72 331.54 364.20 331.35
  Q 367.01 330.20 368.72 332.27
  A 1.48 1.48 0.0 0 1 368.60 334.28
  C 367.21 335.61 365.42 336.70 363.45 336.77
  Q 342.18 337.51 324.78 333.10
  C 320.51 332.01 319.88 336.76 319.10 339.66
  C 318.18 343.09 315.72 346.33 314.06 349.54
  C 313.37 350.87 312.10 351.48 310.67 351.71
  A 1.09 1.09 0.0 0 0 309.82 352.41
  L 309.43 353.43
  Q 309.02 354.52 309.03 353.36
  Q 309.09 348.42 310.77 344.75
  Q 313.06 339.75 314.92 334.42
  A 0.63 0.62 14.7 0 0 314.44 333.60
  Q 313.24 333.40 313.21 332.13
  Q 313.20 331.26 312.48 330.78
  Q 310.24 329.25 307.91 327.91
  C 306.73 327.22 305.58 327.57 304.34 327.70
  A 0.62 0.61 6.8 0 1 303.69 326.88
  C 304.75 324.00 308.67 323.17 311.31 323.44
  Q 315.04 323.82 318.72 324.09
  A 1.07 1.06 13.1 0 0 319.79 323.43
  Q 322.03 317.97 323.86 312.67
  Q 325.42 308.19 327.53 304.12
  Q 329.52 300.29 331.52 295.38
  C 332.73 292.44 334.72 289.80 335.39 286.73
  C 336.00 283.89 338.48 282.15 340.07 279.80
  A 0.47 0.47 0.0 0 0 339.64 279.07
  Q 339.01 279.12 338.42 279.32
  C 331.29 281.68 323.18 285.62 316.86 290.49
  Q 314.17 292.56 311.00 294.69
  Q 302.77 300.23 298.43 305.36
  Q 296.80 307.29 296.20 310.78
  Q 295.97 312.11 294.91 311.27
  Q 294.51 310.94 294.19 310.47
  Q 293.39 309.28 293.42 307.84
  C 293.52 303.12 297.55 297.28 300.27 294.60
  C 306.16 288.82 311.54 283.40 318.99 279.55
  Q 326.01 275.93 331.67 273.44
  Q 336.12 271.48 350.80 267.97
  Q 353.86 267.24 356.93 267.27
  C 359.73 267.29 362.52 266.92 365.26 267.76
  Q 368.50 268.74 371.79 271.12
  C 376.40 274.48 377.04 280.66 374.73 285.47
  C 370.48 294.32 363.79 300.41 356.29 306.49
  Q 352.35 309.68 348.17 312.67
  Q 344.59 315.23 340.85 318.68
  Q 337.80 321.51 332.52 323.74
  C 331.22 324.28 330.24 324.37 328.92 324.65
  A 0.36 0.36 0.0 0 0 328.91 325.35
  Z
  M 330.75 319.05
  Q 334.84 315.88 339.12 312.65
  C 341.76 310.66 344.84 309.04 347.28 306.91
  Q 354.69 300.41 360.75 293.67
  C 363.05 291.10 370.58 281.45 368.17 277.82
  Q 367.21 276.38 365.45 276.03
  Q 357.84 274.53 349.73 276.14
  C 348.83 276.31 348.22 277.06 348.01 277.94
  Q 347.82 278.76 347.48 279.50
  Q 343.22 288.54 339.29 297.33
  Q 334.51 308.01 329.61 318.13
  Q 328.19 321.04 330.75 319.05
  Z"
/>
<path fill="#e6363a" d="
  M 102.61 284.68
  C 96.05 285.31 89.93 291.66 85.73 296.61
  Q 75.78 308.32 71.05 320.84
  Q 69.45 325.09 69.43 330.80
  Q 69.43 331.34 69.74 331.79
  C 71.08 333.69 73.37 336.00 75.87 335.97
  C 79.21 335.92 82.63 335.88 85.74 334.20
  Q 90.15 331.82 94.51 329.61
  C 98.90 327.38 102.40 324.44 106.88 322.39
  A 0.76 0.75 59.6 0 1 107.82 322.64
  C 108.56 323.68 108.14 325.26 107.28 326.12
  C 104.75 328.63 102.40 331.46 99.22 333.25
  Q 95.37 335.42 91.60 337.45
  Q 86.87 340.00 79.43 341.56
  C 73.47 342.80 66.18 340.41 63.53 334.50
  Q 61.81 330.66 62.16 326.63
  Q 62.71 320.34 65.82 313.08
  Q 73.92 294.15 90.02 281.71
  Q 91.51 280.55 94.18 279.70
  C 98.93 278.19 101.84 276.88 106.63 279.68
  Q 107.31 280.08 107.84 279.49
  L 109.94 277.11
  Q 112.46 274.24 116.25 274.74
  Q 117.21 274.87 118.15 275.09
  Q 121.45 275.89 119.21 278.43
  C 113.93 284.41 109.03 291.24 103.26 296.90
  Q 100.57 299.54 97.99 303.33
  A 2.04 2.03 32.6 0 1 95.26 303.93
  C 92.89 302.52 94.02 299.95 95.27 298.27
  Q 99.43 292.63 103.08 285.37
  Q 103.47 284.60 102.61 284.68
  Z"
/>
<path fill="#e6363a" d="
  M 158.04 314.57
  Q 156.34 316.33 154.72 318.16
  C 151.94 321.29 145.34 324.91 141.42 321.90
  Q 137.15 318.63 136.92 313.22
  A 0.61 0.60 80.4 0 0 136.14 312.66
  Q 135.47 312.86 135.13 313.48
  C 132.78 317.70 124.37 330.37 118.24 327.01
  C 111.03 323.07 118.84 306.93 120.65 301.50
  Q 121.42 299.16 122.71 297.56
  C 124.04 295.90 128.06 292.19 130.53 292.86
  Q 132.08 293.28 132.52 294.58
  A 1.31 1.28 -40.6 0 1 132.43 295.61
  Q 127.12 305.20 123.75 315.69
  Q 123.61 316.13 123.78 316.58
  A 0.28 0.28 0.0 0 0 124.21 316.71
  Q 129.01 313.22 132.43 308.73
  Q 134.16 306.46 135.92 304.05
  Q 137.65 301.69 139.19 299.21
  C 140.60 296.93 142.58 297.67 144.63 298.11
  A 2.07 2.06 -77.0 0 1 146.19 300.62
  C 145.19 304.70 143.78 310.04 144.91 314.11
  A 1.44 1.44 0.0 0 0 146.92 315.02
  C 153.25 311.94 157.79 307.16 162.30 302.10
  Q 164.07 300.12 165.11 297.67
  C 166.38 294.65 170.77 293.33 173.35 294.85
  Q 174.94 295.78 175.05 297.65
  Q 175.09 298.28 174.61 298.67
  Q 173.33 299.71 172.65 301.09
  C 171.89 302.60 170.71 303.32 169.73 304.60
  Q 169.61 304.76 169.77 304.90
  L 169.99 305.07
  A 0.54 0.54 0.0 0 0 170.76 304.98
  Q 174.85 299.72 178.83 294.76
  C 182.56 290.12 186.90 285.64 192.49 283.58
  C 195.77 282.37 197.82 286.24 198.30 288.78
  Q 198.41 289.38 198.07 289.87
  L 196.75 291.73
  A 1.34 1.33 -35.5 0 0 196.55 292.88
  Q 197.03 294.63 195.81 295.97
  Q 195.42 296.39 195.50 296.96
  Q 195.88 299.72 195.05 302.38
  Q 194.35 304.62 196.59 305.34
  A 0.77 0.77 0.0 0 1 197.11 305.96
  Q 197.48 308.60 195.01 309.17
  C 187.47 310.92 189.71 298.58 191.04 294.99
  A 0.98 0.98 0.0 0 0 190.23 293.68
  Q 189.47 293.60 188.87 294.13
  Q 187.37 295.49 186.42 296.95
  Q 183.46 301.48 179.78 306.16
  Q 175.17 312.02 170.34 319.80
  C 168.66 322.52 166.29 324.70 163.89 326.84
  C 162.72 327.88 162.49 329.09 161.84 330.41
  A 1.74 1.74 0.0 0 1 159.53 331.23
  Q 158.26 330.64 157.07 329.32
  Q 156.05 328.18 156.69 326.79
  C 158.45 322.94 157.85 318.91 158.76 314.96
  Q 159.10 313.46 158.04 314.57
  Z"
/>
<path fill="#e6363a" d="
  M 509.49 305.53
  Q 511.02 304.78 511.66 303.11
  Q 511.87 302.57 512.29 302.17
  Q 513.52 301.00 514.50 299.61
  Q 517.67 295.06 522.20 290.24
  C 524.23 288.09 531.88 281.35 534.98 283.90
  Q 538.89 287.10 536.65 291.05
  A 2.46 2.46 0.0 0 0 536.33 292.47
  Q 536.49 294.58 535.53 296.42
  A 2.37 2.36 -33.2 0 0 535.27 297.65
  Q 535.43 300.58 534.76 303.55
  Q 534.62 304.18 535.11 304.60
  L 535.75 305.15
  A 2.28 2.27 52.9 0 1 535.23 308.93
  C 533.18 309.88 530.05 309.07 529.65 306.36
  Q 528.83 300.73 529.30 299.25
  Q 530.13 296.67 530.14 295.30
  Q 530.18 292.29 528.04 294.36
  Q 526.78 295.58 525.74 297.19
  Q 523.10 301.28 520.43 304.49
  Q 516.05 309.75 509.43 320.27
  Q 507.46 323.39 503.69 326.51
  C 502.48 327.51 501.97 328.63 501.47 330.05
  A 1.86 1.86 0.0 0 1 498.73 331.02
  Q 497.70 330.38 497.11 330.01
  Q 495.53 329.03 496.13 327.27
  Q 497.61 322.93 497.94 317.61
  Q 498.54 308.21 504.56 297.52
  C 505.70 295.50 507.62 294.53 509.83 294.22
  C 511.81 293.94 513.95 294.98 514.39 297.11
  Q 514.70 298.63 513.22 299.53
  A 2.07 2.03 88.2 0 0 512.43 300.39
  Q 511.39 302.59 509.28 304.31
  A 0.73 0.71 64.2 0 0 509.04 305.03
  L 509.10 305.34
  Q 509.18 305.68 509.49 305.53
  Z"
/>
<rect fill="#929296" x="-1.84" y="-10.58" transform="translate(654.07,314.47) rotate(-0.3)" width="3.68" height="21.16" rx="0.83"/>
<path fill="#929296" d="
  M 664.00 311.74
  Q 663.86 311.91 663.86 312.14
  Q 663.68 318.82 664.07 324.06
  Q 664.14 325.02 663.18 325.03
  L 661.62 325.04
  Q 660.69 325.05 660.69 324.12
  L 660.75 304.50
  Q 660.75 303.92 661.32 303.86
  Q 662.68 303.69 664.02 304.00
  Q 664.58 304.13 664.82 304.65
  L 670.23 316.26
  A 0.42 0.41 55.1 0 0 670.90 316.38
  Q 671.22 316.06 671.22 315.60
  Q 671.24 310.32 671.20 304.61
  Q 671.19 303.76 672.04 303.81
  L 673.73 303.89
  Q 674.52 303.93 674.52 304.73
  L 674.59 324.35
  A 0.69 0.69 0.0 0 1 673.89 325.04
  L 671.55 325.01
  Q 670.69 325.00 670.33 324.21
  L 664.78 311.84
  Q 664.47 311.14 664.00 311.74
  Z"
/>
<path fill="#929296" d="
  M 679.25 304.53
  A 0.70 0.70 0.0 0 1 679.95 303.83
  L 686.77 303.82
  A 7.81 7.08 89.9 0 1 693.87 311.62
  L 693.87 317.32
  A 7.81 7.08 89.9 0 1 686.81 325.14
  L 679.99 325.15
  A 0.70 0.70 0.0 0 1 679.29 324.45
  L 679.25 304.53
  Z
  M 682.91 307.57
  L 682.93 321.27
  A 0.81 0.81 0.0 0 0 683.74 322.07
  L 685.63 322.07
  A 5.14 4.58 89.9 0 0 690.20 316.92
  L 690.20 311.88
  A 5.14 4.58 89.9 0 0 685.61 306.75
  L 683.72 306.75
  A 0.81 0.81 0.0 0 0 682.91 307.57
  Z"
/>
<path fill="#929296" d="
  M 704.65 322.25
  Q 705.17 322.33 705.59 322.21
  Q 707.79 321.55 707.87 319.78
  Q 708.19 312.49 708.00 305.13
  Q 707.97 303.93 709.17 303.86
  L 710.44 303.78
  Q 711.77 303.70 711.75 305.03
  Q 711.71 310.60 711.82 316.99
  C 711.91 321.97 710.49 325.65 704.55 325.42
  C 699.34 325.22 697.86 322.22 697.94 317.62
  Q 698.06 310.61 697.97 304.53
  Q 697.96 303.98 698.51 303.94
  L 700.67 303.80
  A 0.88 0.88 0.0 0 1 701.61 304.68
  L 701.59 318.62
  Q 701.58 321.73 704.65 322.25
  Z"
/>
<path fill="#929296" d="
  M 725.83 318.01
  A 0.47 0.46 19.6 0 0 726.49 317.70
  L 729.59 304.57
  Q 729.76 303.83 730.52 303.83
  L 734.69 303.84
  A 0.61 0.60 89.5 0 1 735.29 304.44
  L 735.42 324.16
  Q 735.42 325.00 734.59 325.02
  L 732.99 325.06
  Q 732.15 325.08 732.16 324.24
  L 732.43 309.04
  A 0.22 0.21 4.8 0 0 732.25 308.83
  L 731.96 308.79
  A 0.59 0.59 0.0 0 0 731.30 309.24
  L 727.85 324.27
  A 0.98 0.98 0.0 0 1 726.91 325.02
  L 724.82 325.05
  Q 723.97 325.06 723.79 324.23
  Q 722.31 317.42 721.39 311.23
  Q 720.59 305.81 720.05 311.26
  Q 719.48 317.02 720.02 323.76
  A 1.22 1.21 88.0 0 1 718.80 325.07
  L 717.64 325.06
  Q 716.47 325.05 716.48 323.89
  L 716.53 304.49
  Q 716.54 303.77 717.26 303.81
  L 721.67 304.02
  A 0.75 0.75 0.0 0 1 722.37 304.63
  Q 723.48 310.44 725.33 317.41
  Q 725.44 317.82 725.83 318.01
  Z"
/>
<path fill="#929296" d="
  M 743.83 315.78
  L 743.82 321.44
  A 0.59 0.59 0.0 0 0 744.40 322.04
  L 751.03 322.21
  A 0.59 0.59 0.0 0 1 751.61 322.84
  L 751.50 324.44
  A 0.59 0.59 0.0 0 1 750.91 324.99
  L 740.82 325.04
  A 0.59 0.59 0.0 0 1 740.23 324.45
  L 740.24 304.50
  A 0.59 0.59 0.0 0 1 740.84 303.91
  L 750.42 304.04
  A 0.59 0.59 0.0 0 1 751.00 304.61
  L 751.06 306.09
  A 0.59 0.59 0.0 0 1 750.48 306.70
  L 744.40 306.80
  A 0.59 0.59 0.0 0 0 743.82 307.39
  L 743.81 311.92
  A 0.59 0.59 0.0 0 0 744.41 312.51
  L 749.81 312.45
  A 0.59 0.59 0.0 0 1 750.41 313.03
  L 750.42 314.69
  A 0.59 0.59 0.0 0 1 749.82 315.29
  L 744.43 315.19
  A 0.59 0.59 0.0 0 0 743.83 315.78
  Z"
/>
<path fill="#929296" d="
  M 765.99 314.80
  Q 766.05 309.99 765.71 304.73
  A 0.82 0.81 -2.7 0 1 766.51 303.86
  L 768.08 303.83
  A 0.89 0.89 0.0 0 1 768.98 304.71
  L 769.09 324.36
  Q 769.09 325.06 768.39 325.05
  L 766.11 325.02
  Q 765.38 325.01 765.08 324.35
  L 759.90 313.11
  Q 758.14 309.28 758.26 313.50
  L 758.57 324.20
  Q 758.60 324.99 757.80 325.02
  L 756.17 325.07
  Q 755.24 325.10 755.24 324.17
  L 755.24 304.71
  Q 755.24 303.98 755.96 303.89
  Q 757.55 303.68 758.77 304.17
  Q 759.28 304.38 759.49 304.88
  Q 761.68 310.04 764.40 315.18
  Q 765.96 318.15 765.99 314.80
  Z"
/>
<path fill="#929296" d="
  M 776.69 306.75
  L 772.81 306.73
  A 0.61 0.61 0.0 0 1 772.20 306.08
  L 772.30 304.51
  A 0.61 0.61 0.0 0 1 772.91 303.93
  L 785.28 303.82
  A 0.61 0.61 0.0 0 1 785.89 304.37
  L 786.06 306.07
  A 0.61 0.61 0.0 0 1 785.46 306.74
  L 781.34 306.76
  A 0.61 0.61 0.0 0 0 780.74 307.37
  L 780.92 324.47
  A 0.61 0.61 0.0 0 1 780.32 325.09
  L 777.85 325.12
  A 0.61 0.61 0.0 0 1 777.23 324.51
  L 777.30 307.36
  A 0.61 0.61 0.0 0 0 776.69 306.75
  Z"
/>
<path fill="#929296" d="
  M 791.13 321.16
  L 790.14 324.55
  A 0.59 0.59 0.0 0 1 789.63 324.98
  L 786.92 325.22
  A 0.59 0.59 0.0 0 1 786.30 324.47
  L 792.17 304.24
  A 0.59 0.59 0.0 0 1 792.74 303.81
  L 796.04 303.83
  A 0.59 0.59 0.0 0 1 796.60 304.26
  L 802.37 324.37
  A 0.59 0.59 0.0 0 1 801.77 325.12
  L 799.04 324.95
  A 0.59 0.59 0.0 0 1 798.50 324.48
  L 797.82 321.36
  A 0.59 0.59 0.0 0 0 797.26 320.90
  L 791.72 320.73
  A 0.59 0.59 0.0 0 0 791.13 321.16
  Z
  M 791.95 316.95
  A 0.54 0.54 0.0 0 0 792.48 317.62
  L 796.28 317.63
  A 0.54 0.54 0.0 0 0 796.81 316.97
  L 794.93 308.76
  A 0.54 0.54 0.0 0 0 793.88 308.75
  L 791.95 316.95
  Z"
/>
<path fill="#929296" d="
  M 811.71 316.39
  Q 810.68 315.79 809.52 315.82
  Q 808.82 315.84 808.81 316.55
  L 808.78 324.55
  A 0.57 0.57 0.0 0 1 808.20 325.11
  L 805.86 325.04
  Q 805.19 325.02 805.18 324.36
  L 805.09 304.32
  A 0.56 0.56 0.0 0 1 805.67 303.76
  Q 809.71 303.89 813.85 303.99
  C 820.57 304.16 821.15 313.11 815.49 315.14
  A 0.41 0.41 0.0 0 0 815.33 315.80
  Q 818.86 319.56 820.67 324.92
  Q 820.74 325.14 820.51 325.13
  L 816.85 324.98
  Q 816.64 324.97 816.55 324.79
  L 812.70 317.42
  A 2.69 2.65 1.6 0 0 811.71 316.39
  Z
  M 808.78 307.58
  L 808.80 312.46
  A 0.81 0.81 0.0 0 0 809.61 313.27
  L 811.74 313.26
  A 3.82 2.99 -0.2 0 0 815.55 310.26
  L 815.55 309.74
  A 3.82 2.99 -0.2 0 0 811.72 306.76
  L 809.59 306.77
  A 0.81 0.81 0.0 0 0 808.78 307.58
  Z"
/>
<rect fill="#929296" x="-1.88" y="-10.60" transform="translate(825.57,314.44) rotate(-0.1)" width="3.76" height="21.20" rx="0.59"/>
<path fill="#929296" d="
  M 834.97 321.21
  L 833.98 324.50
  A 0.69 0.68 7.4 0 1 833.33 324.99
  L 830.56 325.03
  Q 830.07 325.04 830.20 324.56
  L 835.75 304.76
  A 1.21 1.21 0.0 0 1 836.69 303.89
  Q 838.19 303.59 839.77 303.91
  A 1.05 1.05 0.0 0 1 840.57 304.66
  L 846.19 324.51
  A 0.45 0.45 0.0 0 1 845.74 325.08
  L 843.08 325.01
  Q 842.40 324.99 842.27 324.32
  L 841.84 322.01
  A 1.47 1.47 0.0 0 0 840.39 320.80
  L 835.56 320.77
  Q 835.10 320.77 834.97 321.21
  Z
  M 835.76 317.06
  A 0.59 0.59 0.0 0 0 836.33 317.78
  L 840.03 317.76
  A 0.59 0.59 0.0 0 0 840.60 317.04
  L 838.73 308.99
  A 0.59 0.59 0.0 0 0 837.58 309.00
  L 835.76 317.06
  Z"
/>
<path fill="#e3771c" fill-opacity="0.992" d="
  M 227.07 311.03
  Q 226.72 314.33 223.58 318.09
  Q 219.91 322.51 215.82 326.85
  Q 217.60 323.29 219.93 320.42
  Q 223.57 315.91 227.07 311.03
  Z"
/>
<rect fill="#929296" x="517.04" y="337.09" width="332.02" height="3.44" rx="0.95"/>
<path fill="#e3771c" fill-opacity="0.992" d="
  M 199.67 357.80
  Q 200.56 360.33 201.21 364.74
  Q 202.03 370.34 208.14 374.05
  Q 203.83 373.04 201.65 369.35
  Q 198.37 363.80 199.67 357.80
  Z"
/>
<path fill="#e6363a" d="
  M 1058.00 448.06
  L 1058.00 454.01
  L 0.00 453.98
  L 0.00 448.09
  L 1058.00 448.06
  Z"
/>
<path fill="#171914" d="
  M 93.46 516.86
  C 90.92 521.24 89.30 526.52 88.24 531.47
  Q 87.62 534.32 87.11 531.45
  C 85.07 519.95 78.49 511.32 72.59 501.42
  C 64.51 487.85 76.64 471.65 92.02 475.50
  C 101.21 477.80 106.80 486.43 104.97 495.71
  Q 104.22 499.49 101.42 503.87
  Q 96.94 510.86 93.46 516.86
  Z
  M 85.83 522.59
  Q 86.39 524.01 86.94 525.39
  Q 87.69 527.30 88.36 525.36
  C 91.43 516.57 96.37 509.59 101.11 501.80
  Q 105.68 494.27 103.20 487.30
  C 99.82 477.79 89.30 473.77 80.48 477.93
  C 72.98 481.47 69.08 490.46 72.50 498.29
  Q 74.36 502.52 76.94 506.16
  Q 82.40 513.83 85.83 522.59
  Z"
/>
<path fill="#e6363a" d="
  M 85.83 522.59
  Q 82.40 513.83 76.94 506.16
  Q 74.36 502.52 72.50 498.29
  C 69.08 490.46 72.98 481.47 80.48 477.93
  C 89.30 473.77 99.82 477.79 103.20 487.30
  Q 105.68 494.27 101.11 501.80
  C 96.37 509.59 91.43 516.57 88.36 525.36
  Q 87.69 527.30 86.94 525.39
  Q 86.39 524.01 85.83 522.59
  Z
  M 93.64 492.07
  A 5.96 5.96 0.0 0 0 87.68 486.11
  A 5.96 5.96 0.0 0 0 81.72 492.07
  A 5.96 5.96 0.0 0 0 87.68 498.03
  A 5.96 5.96 0.0 0 0 93.64 492.07
  Z"
/>
<circle fill="#171914" cx="87.68" cy="492.07" r="5.96"/>
<path fill="#8e419a" d="
  M 802.60 534.84
  Q 797.82 533.02 799.09 531.54
  Q 801.77 531.53 804.51 531.49
  Q 808.09 531.44 809.84 530.73
  C 817.40 527.70 815.34 518.83 815.74 512.69
  C 816.14 506.53 813.80 500.84 807.24 499.82
  Q 798.37 498.44 788.06 501.22
  Q 784.38 500.13 784.96 496.85
  Q 800.42 495.69 811.00 496.38
  C 814.07 496.58 817.99 499.48 818.00 502.94
  Q 818.01 516.56 817.95 527.69
  C 817.92 531.03 814.90 533.99 811.82 534.63
  Q 808.12 535.38 802.60 534.84
  Z"
/>
<path fill="#e3771c" fill-opacity="0.992" d="
  M 784.96 496.85
  Q 784.38 500.13 788.06 501.22
  Q 784.00 504.93 784.00 510.00
  Q 783.99 516.07 784.09 521.82
  C 784.10 522.73 784.43 523.59 784.54 524.49
  Q 784.66 525.46 785.12 526.24
  Q 786.11 527.92 787.50 529.36
  Q 788.63 530.52 790.51 530.88
  Q 794.67 531.69 799.09 531.54
  Q 797.82 533.02 802.60 534.84
  Q 795.20 535.37 788.37 534.87
  Q 785.75 534.68 784.30 533.53
  C 782.08 531.76 779.76 529.36 779.78 526.25
  Q 779.88 515.18 780.03 504.49
  Q 780.08 501.23 784.96 496.85
  Z"
/>
<path fill="#292929" d="
  M 149.80 503.72
  C 143.48 505.77 143.53 519.80 148.95 522.30
  C 153.47 524.38 157.12 521.76 157.94 517.25
  Q 157.98 517.02 158.21 517.03
  Q 159.28 517.08 160.59 517.67
  Q 160.73 517.73 160.70 517.87
  Q 158.72 526.31 150.86 525.68
  C 142.14 524.97 140.87 512.84 143.34 506.84
  C 146.71 498.65 157.47 497.98 160.33 507.32
  Q 160.38 507.50 160.22 507.58
  Q 159.20 508.09 157.96 508.26
  Q 157.78 508.29 157.72 508.11
  Q 155.57 501.85 149.80 503.72
  Z"
/>
<path fill="#171914" d="
  M 300.93 506.86
  L 296.90 509.64
  Q 296.25 510.08 296.23 509.30
  L 296.18 507.73
  Q 296.16 506.99 296.80 506.62
  Q 300.15 504.69 302.30 501.19
  Q 302.74 500.47 303.50 500.86
  A 0.83 0.82 13.7 0 1 303.95 501.59
  L 303.98 524.98
  Q 303.98 525.44 303.52 525.42
  L 301.87 525.36
  A 0.47 0.47 0.0 0 1 301.41 524.89
  L 301.41 507.11
  A 0.31 0.30 -17.1 0 0 300.93 506.86
  Z"
/>
<path fill="#171914" d="
  M 321.33 514.87
  Q 316.12 519.70 312.09 514.28
  C 309.83 511.27 310.19 505.34 313.16 502.50
  C 315.93 499.85 320.44 500.61 322.49 503.73
  C 325.19 507.85 324.81 515.15 323.71 519.60
  Q 322.27 525.41 317.12 525.77
  C 313.92 526.00 311.43 523.39 311.15 520.30
  Q 311.09 519.66 311.74 519.61
  L 312.95 519.52
  A 0.64 0.63 83.8 0 1 313.63 520.07
  C 313.83 521.65 314.90 523.21 316.61 523.30
  C 320.91 523.51 321.80 518.37 321.86 515.11
  Q 321.88 514.36 321.33 514.87
  Z
  M 317.3727 514.5190
  A 5.59 4.20 91.1 0 0 321.6792 509.0106
  A 5.59 4.20 91.1 0 0 317.5873 503.3410
  A 5.59 4.20 91.1 0 0 313.2808 508.8494
  A 5.59 4.20 91.1 0 0 317.3727 514.5190
  Z"
/>
<path fill="#171914" d="
  M 330.01 511.91
  Q 333.39 508.12 337.32 510.33
  C 342.47 513.23 341.89 523.50 336.13 525.46
  C 332.37 526.74 328.58 524.04 327.74 520.40
  Q 325.91 512.49 328.08 506.02
  C 330.36 499.24 338.87 498.83 340.45 506.45
  A 0.29 0.29 0.0 0 1 340.27 506.78
  Q 339.07 507.26 337.96 506.93
  Q 337.85 506.90 337.83 506.78
  Q 337.34 503.57 334.54 503.34
  C 330.61 503.02 329.47 508.81 329.51 511.72
  Q 329.52 512.46 330.01 511.91
  Z
  M 334.1585 523.3495
  A 5.62 4.21 89.2 0 0 338.2896 517.6712
  A 5.62 4.21 89.2 0 0 334.0015 512.1105
  A 5.62 4.21 89.2 0 0 329.8704 517.7888
  A 5.62 4.21 89.2 0 0 334.1585 523.3495
  Z"
/>
<path fill="#171914" d="
  M 354.25 512.68
  C 360.00 516.64 357.15 526.27 349.74 525.70
  C 342.96 525.17 341.07 515.96 346.61 512.44
  Q 347.09 512.13 346.64 511.78
  Q 342.91 508.85 344.96 504.20
  Q 346.05 501.72 348.67 501.11
  C 354.23 499.81 357.83 504.94 355.80 509.83
  Q 355.58 510.34 355.19 510.73
  L 354.17 511.74
  Q 353.64 512.26 354.25 512.68
  Z
  M 350.4250 511.0388
  A 3.89 3.47 88.6 0 0 353.7990 507.0652
  A 3.89 3.47 88.6 0 0 350.2350 503.2612
  A 3.89 3.47 88.6 0 0 346.8610 507.2348
  A 3.89 3.47 88.6 0 0 350.4250 511.0388
  Z
  M 350.3910 523.3796
  A 4.99 4.35 89.3 0 0 354.6797 518.3369
  A 4.99 4.35 89.3 0 0 350.2690 513.4004
  A 4.99 4.35 89.3 0 0 345.9803 518.4431
  A 4.99 4.35 89.3 0 0 350.3910 523.3796
  Z"
/>
<path fill="#bfc0c2" d="
  M 100.16 516.87
  C 102.27 512.09 106.35 505.66 111.45 503.74
  C 118.65 501.02 132.13 499.15 137.64 506.20
  A 1.94 1.90 28.2 0 1 138.04 507.48
  C 137.69 513.77 138.22 518.88 130.82 521.36
  Q 123.50 523.81 114.78 525.42
  C 107.33 526.80 100.22 528.92 92.78 530.69
  Q 90.78 531.17 92.12 529.61
  Q 97.07 523.85 100.16 516.87
  Z"
/>
<rect fill="#171914" x="866.69" y="501.60" width="2.28" height="20.88" rx="0.46"/>
<path fill="#171914" d="
  M 925.96 512.74
  L 930.29 508.01
  Q 930.96 507.28 931.95 507.27
  L 932.96 507.26
  Q 933.94 507.25 933.27 507.96
  L 929.04 512.48
  A 0.85 0.84 -39.5 0 0 928.94 513.49
  L 933.98 521.69
  Q 934.46 522.48 933.54 522.48
  L 932.43 522.49
  A 1.48 1.47 -15.1 0 1 931.13 521.75
  L 927.39 515.39
  A 0.66 0.65 59.0 0 0 926.49 515.16
  C 924.76 516.23 925.25 519.97 925.31 521.75
  Q 925.33 522.41 924.68 522.45
  L 923.78 522.51
  Q 923.00 522.56 923.00 521.78
  L 923.02 502.21
  A 0.71 0.70 2.9 0 1 923.80 501.51
  L 924.72 501.61
  Q 925.28 501.67 925.28 502.22
  L 925.28 512.48
  Q 925.28 513.48 925.96 512.74
  Z"
/>
<path fill="#171914" d="
  M 184.07 507.69
  L 185.45 507.69
  Q 185.96 507.69 185.96 508.20
  L 185.96 509.40
  Q 185.96 510.02 185.34 510.00
  L 184.00 509.97
  Q 183.35 509.96 183.34 510.61
  Q 183.28 516.08 183.40 521.16
  Q 183.45 523.12 185.34 522.77
  Q 185.87 522.67 185.97 523.21
  L 186.25 524.77
  Q 186.33 525.25 185.87 525.39
  C 183.25 526.21 180.85 525.10 180.80 522.07
  Q 180.71 516.14 180.79 510.66
  Q 180.80 510.16 180.32 510.02
  Q 179.98 509.92 179.62 509.99
  Q 178.86 510.14 178.81 509.36
  Q 178.77 508.74 178.93 508.16
  Q 179.11 507.51 179.76 507.67
  Q 179.99 507.72 180.22 507.69
  Q 180.80 507.61 180.79 507.02
  L 180.75 504.20
  Q 180.74 503.35 181.43 502.87
  L 182.64 502.02
  Q 183.33 501.53 183.33 502.38
  L 183.35 506.98
  A 0.72 0.72 0.0 0 0 184.07 507.69
  Z"
/>
<path fill="#e6363a" d="
  M 796.32 502.28
  Q 795.79 505.08 800.48 508.33
  Q 793.76 508.91 792.21 514.00
  Q 790.59 519.34 794.32 522.56
  C 798.14 525.85 802.74 525.32 806.30 521.85
  Q 809.49 523.89 811.79 527.35
  C 809.28 529.71 806.96 529.20 804.16 529.36
  Q 802.18 529.48 800.33 529.39
  Q 796.22 529.18 792.21 529.45
  C 790.95 529.53 789.98 529.06 788.87 528.56
  Q 788.41 528.35 788.22 527.90
  Q 787.67 526.61 786.61 525.79
  Q 786.21 525.49 786.19 525.00
  Q 785.58 512.59 786.05 508.51
  Q 786.73 502.56 792.25 502.20
  Q 793.12 502.14 796.32 502.28
  Z"
/>
<path fill="#8e419a" d="
  M 796.32 502.28
  Q 800.36 502.23 804.23 502.23
  Q 808.50 502.23 810.14 503.09
  Q 813.37 504.78 813.40 509.12
  Q 813.44 515.95 813.53 523.03
  Q 813.54 524.22 812.99 525.31
  Q 812.37 526.53 811.79 527.35
  Q 809.49 523.89 806.30 521.85
  Q 811.53 512.17 800.48 508.33
  Q 795.79 505.08 796.32 502.28
  Z
  M 809.5626 508.0261
  A 1.41 1.09 37.9 0 0 809.1196 506.2999
  A 1.41 1.09 37.9 0 0 807.3374 506.2939
  A 1.41 1.09 37.9 0 0 807.7804 508.0201
  A 1.41 1.09 37.9 0 0 809.5626 508.0261
  Z"
/>
<ellipse fill="#bfc0c2" cx="0.00" cy="0.00" transform="translate(808.45,507.16) rotate(37.9)" rx="1.41" ry="1.09"/>
<path fill="#171914" d="
  M 838.33 511.57
  C 837.76 508.55 834.08 508.35 832.48 510.63
  C 830.69 513.19 830.50 520.79 835.55 520.65
  C 837.13 520.61 838.39 519.19 838.53 517.67
  Q 838.60 517.01 839.26 517.03
  L 840.23 517.06
  Q 840.90 517.08 840.83 517.74
  C 840.06 524.65 830.61 524.25 829.27 517.52
  C 828.35 512.84 829.66 506.91 835.54 507.07
  Q 839.49 507.17 840.67 511.15
  Q 840.87 511.80 840.20 511.90
  L 839.03 512.07
  Q 838.44 512.16 838.33 511.57
  Z"
/>
<path fill="#171914" d="
  M 860.57 508.67
  Q 860.74 508.47 860.85 508.23
  C 861.51 506.65 863.75 506.88 865.03 507.67
  Q 865.23 507.80 865.19 508.04
  Q 864.99 509.19 864.49 509.89
  Q 864.39 510.02 864.25 509.96
  C 861.01 508.61 860.15 511.72 860.14 514.11
  Q 860.13 518.30 860.13 521.92
  Q 860.13 522.48 859.57 522.47
  L 858.25 522.46
  Q 857.80 522.46 857.80 522.00
  L 857.82 507.89
  A 0.58 0.58 0.0 0 1 858.36 507.31
  L 859.22 507.25
  A 0.54 0.52 -15.7 0 1 859.72 507.52
  Q 859.95 507.96 859.96 508.44
  Q 859.98 509.34 860.57 508.67
  Z"
/>
<path fill="#171914" d="
  M 888.53 508.83
  Q 890.00 506.23 892.76 507.43
  Q 893.42 507.71 893.21 508.40
  L 892.90 509.45
  Q 892.71 510.10 892.07 509.86
  C 889.49 508.88 888.44 511.12 888.35 513.20
  Q 888.17 517.47 888.27 521.93
  Q 888.29 522.47 887.74 522.48
  L 886.47 522.48
  Q 885.96 522.48 885.97 521.97
  L 886.00 507.95
  Q 886.00 507.60 886.30 507.42
  Q 886.76 507.14 887.37 507.23
  A 0.70 0.68 1.8 0 1 887.94 507.82
  L 888.06 508.74
  Q 888.15 509.50 888.53 508.83
  Z"
/>
<path fill="#171914" d="
  M 900.3882 522.8699
  A 7.98 6.61 90.3 0 1 893.8201 514.8554
  A 7.98 6.61 90.3 0 1 900.4718 506.9101
  A 7.98 6.61 90.3 0 1 907.0399 514.9246
  A 7.98 6.61 90.3 0 1 900.3882 522.8699
  Z
  M 900.3689 520.7498
  A 5.86 4.17 90.5 0 0 904.5898 514.9264
  A 5.86 4.17 90.5 0 0 900.4711 509.0302
  A 5.86 4.17 90.5 0 0 896.2502 514.8536
  A 5.86 4.17 90.5 0 0 900.3689 520.7498
  Z"
/>
<path fill="#171914" d="
  M 914.87 520.65
  Q 917.99 520.78 918.63 517.23
  Q 918.69 516.91 919.01 516.96
  L 920.66 517.22
  Q 920.84 517.25 920.82 517.43
  C 919.99 524.98 910.06 524.32 909.08 516.82
  C 908.49 512.27 909.85 507.00 915.35 507.05
  Q 919.59 507.09 920.67 511.42
  Q 920.72 511.64 920.51 511.72
  Q 919.75 512.02 918.86 512.06
  Q 918.46 512.08 918.36 511.70
  Q 917.69 509.21 915.53 509.14
  C 909.79 508.96 910.15 520.46 914.87 520.65
  Z"
/>
<path fill="#171914" d="
  M 937.92 516.21
  C 938.40 520.41 942.84 522.80 945.46 518.27
  Q 945.69 517.87 946.14 517.78
  Q 946.78 517.64 947.49 517.79
  Q 948.08 517.92 947.92 518.50
  C 946.82 522.33 942.72 523.66 939.30 522.18
  C 933.47 519.64 934.46 507.09 941.58 507.05
  Q 947.80 507.02 948.18 514.53
  Q 948.23 515.54 947.23 515.54
  L 938.53 515.53
  Q 937.85 515.53 937.92 516.21
  Z
  M 938.62 513.50
  L 945.18 513.46
  A 0.54 0.54 0.0 0 0 945.72 512.92
  L 945.72 512.74
  A 3.70 3.66 89.7 0 0 942.04 509.06
  L 941.72 509.06
  A 3.70 3.66 89.7 0 0 938.08 512.78
  L 938.08 512.96
  A 0.54 0.54 0.0 0 0 938.62 513.50
  Z"
/>
<path fill="#171914" d="
  M 953.61 508.71
  Q 955.21 506.28 957.97 507.47
  A 0.73 0.73 0.0 0 1 958.38 508.37
  L 957.99 509.50
  Q 957.83 510.00 957.31 509.87
  Q 953.88 508.99 953.60 512.70
  Q 953.29 516.88 953.50 521.63
  Q 953.54 522.43 952.74 522.46
  L 951.80 522.50
  A 0.70 0.69 -0.8 0 1 951.07 521.80
  L 951.11 507.98
  A 0.76 0.75 86.1 0 1 951.76 507.23
  Q 952.27 507.16 952.72 507.40
  Q 953.23 507.68 953.13 508.26
  Q 953.09 508.44 953.12 508.61
  Q 953.24 509.28 953.61 508.71
  Z"
/>
<path fill="#171914" d="
  M 968.02 508.06
  Q 968.13 509.28 968.85 508.29
  Q 970.29 506.31 972.83 507.48
  Q 973.36 507.72 973.20 508.27
  L 972.89 509.42
  Q 972.76 509.90 972.26 509.85
  L 970.54 509.69
  Q 969.97 509.64 969.56 510.05
  C 967.53 512.13 968.18 518.96 968.25 521.69
  Q 968.27 522.49 967.47 522.51
  L 966.73 522.52
  Q 965.93 522.54 965.93 521.73
  L 965.95 508.06
  Q 965.95 507.67 966.27 507.43
  Q 966.71 507.10 967.35 507.26
  Q 967.62 507.32 967.80 507.53
  Q 967.99 507.76 968.02 508.06
  Z"
/>
<path fill="#171914" d="
  M 986.7133 516.8090
  A 5.81 5.81 0.0 0 1 980.9135 522.6291
  L 979.9135 522.6309
  A 5.81 5.81 0.0 0 1 974.0934 516.8310
  L 974.0867 512.9910
  A 5.81 5.81 0.0 0 1 979.8865 507.1709
  L 980.8865 507.1691
  A 5.81 5.81 0.0 0 1 986.7066 512.9690
  L 986.7133 516.8090
  Z
  M 980.3592 520.7299
  A 5.84 4.16 90.4 0 0 984.5599 514.9190
  A 5.84 4.16 90.4 0 0 980.4408 509.0501
  A 5.84 4.16 90.4 0 0 976.2401 514.8610
  A 5.84 4.16 90.4 0 0 980.3592 520.7299
  Z"
/>
<path fill="#171914" d="
  M 991.95 521.78
  L 991.95 527.77
  A 0.47 0.47 0.0 0 1 991.48 528.24
  L 990.24 528.25
  Q 989.63 528.25 989.63 527.64
  L 989.61 507.95
  A 0.68 0.68 0.0 0 1 990.30 507.27
  L 991.31 507.29
  Q 992.07 507.30 991.78 508.01
  Q 991.69 508.23 991.77 508.44
  Q 991.93 508.87 992.26 508.55
  C 995.27 505.61 999.74 507.20 1000.96 511.04
  Q 1002.39 515.56 1000.78 518.92
  Q 997.93 524.87 992.42 521.51
  Q 991.95 521.23 991.95 521.78
  Z
  M 995.3350 520.7680
  A 5.92 3.81 91.5 0 0 999.2987 514.9497
  A 5.92 3.81 91.5 0 0 995.6450 508.9320
  A 5.92 3.81 91.5 0 0 991.6813 514.7503
  A 5.92 3.81 91.5 0 0 995.3350 520.7680
  Z"
/>
<path fill="#171914" d="
  M 1012.89 521.08
  C 1010.12 523.42 1005.15 523.69 1003.87 519.72
  C 1002.86 516.57 1005.40 514.18 1008.42 513.88
  Q 1010.77 513.65 1012.77 512.95
  A 0.79 0.77 84.0 0 0 1013.28 512.31
  Q 1013.54 510.03 1011.56 509.39
  Q 1007.78 508.18 1006.48 511.40
  Q 1006.29 511.87 1005.78 511.89
  L 1004.76 511.91
  Q 1004.14 511.93 1004.20 511.32
  C 1004.56 507.82 1008.32 506.73 1011.49 507.10
  Q 1015.88 507.60 1015.67 512.20
  Q 1015.46 517.02 1016.02 521.96
  Q 1016.07 522.42 1015.62 522.52
  Q 1013.87 522.90 1013.56 521.32
  A 0.42 0.41 64.3 0 0 1012.89 521.08
  Z
  M 1012.75 515.12
  Q 1010.22 515.64 1008.04 516.14
  Q 1006.25 516.54 1006.14 518.31
  A 2.21 2.20 9.2 0 0 1007.79 520.59
  C 1010.08 521.19 1012.82 520.01 1013.12 517.43
  Q 1013.23 516.52 1013.31 515.63
  A 0.47 0.47 0.0 0 0 1012.75 515.12
  Z"
/>
<path fill="#171914" d="
  M 173.22 523.68
  Q 171.54 525.49 168.95 525.71
  C 161.71 526.32 160.98 516.71 167.62 515.48
  Q 170.24 514.99 172.80 514.54
  A 1.14 1.14 0.0 0 0 173.74 513.51
  Q 173.96 510.69 171.54 510.00
  Q 167.46 508.82 166.12 512.55
  A 0.80 0.80 0.0 0 1 165.18 513.05
  L 163.96 512.75
  Q 163.53 512.64 163.62 512.21
  Q 164.29 509.19 166.69 508.10
  C 170.69 506.29 176.55 507.14 176.32 512.88
  Q 176.06 519.07 176.82 525.12
  Q 176.87 525.46 176.52 525.44
  L 174.60 525.31
  Q 174.40 525.30 174.34 525.10
  L 173.92 523.83
  Q 173.70 523.16 173.22 523.68
  Z
  M 173.28 516.82
  L 168.01 517.96
  Q 165.71 518.46 165.78 520.82
  Q 165.82 522.00 167.16 522.98
  A 2.39 2.38 61.3 0 0 168.70 523.43
  Q 174.16 523.08 173.68 517.11
  Q 173.65 516.74 173.28 516.82
  Z"
/>
<path fill="#171914" d="
  M 198.50 523.84
  A 0.32 0.32 0.0 0 0 197.99 523.71
  Q 195.67 525.76 192.76 525.76
  C 186.18 525.76 185.90 516.83 192.02 515.51
  Q 194.45 514.98 196.97 514.62
  A 1.52 1.51 -2.2 0 0 198.26 513.24
  C 198.36 511.87 197.64 510.43 196.24 510.05
  Q 191.97 508.87 190.79 512.49
  Q 190.60 513.07 189.99 513.03
  L 188.75 512.95
  A 0.62 0.62 0.0 0 1 188.19 512.22
  C 189.08 507.37 194.47 506.42 198.40 507.96
  C 200.34 508.72 200.85 510.77 200.88 512.61
  C 200.93 516.45 200.47 521.20 201.48 524.83
  Q 201.63 525.38 201.05 525.40
  L 199.54 525.46
  Q 199.09 525.47 198.93 525.05
  L 198.50 523.84
  Z
  M 198.32 518.37
  Q 198.79 516.49 196.91 516.97
  Q 195.02 517.47 193.13 517.83
  C 188.25 518.77 190.34 524.99 195.52 522.93
  Q 197.37 522.20 197.85 520.27
  Q 198.09 519.32 198.32 518.37
  Z"
/>
<path fill="#171914" d="
  M 207.57 509.48
  C 208.09 509.13 208.48 508.52 209.04 508.19
  Q 213.22 505.78 216.00 509.71
  A 0.46 0.45 -48.5 0 0 216.77 509.66
  C 218.39 506.67 222.75 506.61 224.60 509.12
  Q 225.65 510.56 225.65 513.13
  Q 225.64 519.40 225.69 524.63
  Q 225.69 525.32 225.01 525.36
  L 223.77 525.43
  A 0.66 0.66 0.0 0 1 223.07 524.77
  L 223.05 512.84
  Q 223.04 510.31 220.55 509.88
  Q 218.74 509.56 216.88 512.91
  A 2.48 2.48 0.0 0 0 216.57 514.11
  L 216.55 524.75
  Q 216.55 525.32 215.99 525.35
  L 214.74 525.42
  A 0.68 0.67 88.0 0 1 214.02 524.74
  L 214.00 513.03
  Q 214.00 510.55 211.60 509.91
  Q 211.26 509.82 210.92 509.89
  A 4.22 4.19 -5.1 0 0 207.59 513.84
  Q 207.40 519.24 207.54 524.79
  A 0.60 0.59 -2.5 0 1 206.97 525.40
  L 205.58 525.45
  Q 204.94 525.47 204.94 524.83
  L 204.94 508.24
  A 0.55 0.55 0.0 0 1 205.51 507.69
  L 206.75 507.72
  A 0.48 0.47 -86.1 0 1 207.21 508.25
  L 207.11 509.21
  Q 207.04 509.85 207.57 509.48
  Z"
/>
<path fill="#171914" d="
  M 238.75 523.81
  C 235.36 526.94 229.20 526.62 228.61 521.14
  C 227.96 515.15 234.56 515.49 238.29 514.51
  Q 239.27 514.25 239.29 513.24
  Q 239.35 510.67 237.15 510.03
  Q 232.93 508.79 231.67 512.54
  Q 231.51 513.03 231.00 513.01
  L 229.73 512.97
  Q 229.07 512.94 229.17 512.30
  Q 229.69 508.99 232.70 507.87
  C 237.18 506.21 242.17 507.60 241.87 513.35
  Q 241.55 519.80 242.34 524.91
  Q 242.46 525.68 241.73 525.39
  Q 241.49 525.29 241.24 525.35
  Q 239.69 525.73 239.57 524.14
  Q 239.50 523.13 238.75 523.81
  Z
  M 238.82 516.72
  Q 236.26 517.43 233.79 517.91
  Q 231.02 518.45 231.40 521.15
  A 2.46 2.46 0.0 0 0 233.14 523.17
  C 237.43 524.44 239.54 520.76 239.19 516.98
  A 0.30 0.30 0.0 0 0 238.82 516.72
  Z"
/>
<path fill="#171914" d="
  M 248.72 509.38
  Q 250.40 506.23 253.56 507.93
  Q 254.06 508.20 253.92 508.75
  L 253.52 510.25
  Q 253.36 510.85 252.75 510.72
  L 251.37 510.43
  Q 250.77 510.31 250.29 510.68
  Q 248.50 512.03 248.46 514.83
  Q 248.38 520.13 248.43 524.89
  Q 248.43 525.37 247.96 525.38
  L 246.36 525.41
  Q 245.79 525.42 245.80 524.86
  L 245.81 508.21
  Q 245.81 507.73 246.29 507.72
  L 247.42 507.69
  Q 247.93 507.67 248.00 508.18
  L 248.15 509.28
  Q 248.28 510.20 248.72 509.38
  Z"
/>
<path fill="#171914" d="
  M 260.37 510.13
  C 256.80 511.66 256.92 518.81 258.64 521.46
  C 260.71 524.65 264.95 523.45 265.43 519.76
  A 0.83 0.83 0.0 0 1 266.28 519.03
  L 267.28 519.07
  A 0.79 0.79 0.0 0 1 268.02 520.04
  Q 266.71 525.71 261.79 525.70
  C 254.67 525.70 254.08 516.97 255.65 511.85
  C 257.58 505.57 266.64 505.73 267.85 512.57
  Q 267.88 512.75 267.71 512.83
  Q 266.73 513.27 265.61 513.25
  Q 265.46 513.25 265.41 513.11
  Q 263.98 508.58 260.37 510.13
  Z"
/>
<path fill="#171914" d="
  M 279.83 523.79
  C 277.17 526.03 272.73 526.83 270.45 523.75
  C 268.07 520.54 270.11 516.31 273.98 515.50
  Q 276.48 514.98 279.12 514.58
  Q 279.96 514.45 280.09 513.61
  C 280.80 508.87 273.84 508.40 272.66 512.52
  Q 272.50 513.05 271.95 513.03
  L 270.56 512.96
  Q 269.96 512.93 270.05 512.33
  C 270.81 507.46 276.30 506.42 280.22 507.93
  C 282.14 508.67 282.73 510.75 282.75 512.65
  C 282.79 516.35 282.35 521.27 283.36 524.73
  Q 283.51 525.23 283.00 525.36
  Q 280.69 525.97 280.43 524.02
  Q 280.34 523.36 279.83 523.79
  Z
  M 279.58 516.74
  C 277.65 517.50 275.18 517.40 273.47 518.45
  C 270.93 520.00 272.61 523.70 275.56 523.39
  Q 280.61 522.85 280.10 517.07
  A 0.39 0.38 -12.5 0 0 279.58 516.74
  Z"
/>
<path fill="#171914" d="
  M 851.30 521.07
  C 849.47 523.41 845.69 523.24 843.96 521.04
  Q 842.98 519.79 842.96 516.78
  Q 842.95 512.16 843.01 507.81
  Q 843.02 507.27 843.56 507.29
  L 844.68 507.32
  Q 845.27 507.33 845.27 507.93
  L 845.30 517.51
  Q 845.31 519.91 847.64 520.50
  Q 848.14 520.62 848.63 520.52
  Q 851.78 519.87 851.79 516.66
  L 851.84 507.97
  Q 851.84 507.28 852.53 507.30
  L 853.48 507.33
  Q 854.12 507.35 854.12 507.99
  L 854.12 521.77
  Q 854.12 522.24 853.69 522.43
  Q 853.28 522.62 852.83 522.57
  Q 852.47 522.53 852.28 522.21
  Q 852.01 521.77 851.96 521.26
  Q 851.86 520.35 851.30 521.07
  Z"
/>
<path fill="#171914" d="
  M 877.14 518.16
  Q 877.49 519.62 877.97 518.20
  L 881.40 508.01
  Q 881.59 507.45 882.18 507.38
  L 883.28 507.26
  Q 883.93 507.19 883.73 507.81
  Q 880.24 518.63 877.44 525.98
  Q 876.44 528.60 873.60 528.55
  Q 872.48 528.53 872.48 527.41
  Q 872.48 527.18 872.40 526.97
  Q 871.98 525.81 873.19 526.05
  C 875.85 526.56 876.85 523.19 876.12 521.16
  Q 873.74 514.51 871.51 507.80
  Q 871.39 507.42 871.79 507.40
  L 873.22 507.31
  Q 873.69 507.28 873.86 507.73
  Q 875.94 513.14 877.14 518.16
  Z"
/>
<circle fill="#e6363a" cx="799.85" cy="516.69" r="6.16"/>
<rect fill="#171914" x="-1.38" y="-1.49" transform="translate(960.51,521.00) rotate(0.1)" width="2.76" height="2.98" rx="0.62"/>
</svg>
